SplineFontDB: 3.2
FontName: Lizard_cult_og
FullName: Lizard_cult_og
FamilyName: Lizard_cult
Weight: Regular
Copyright: Copyright (c) 2020, tcm47
UComments: "2020-8-8: Created with FontForge (http://fontforge.org)"
FontLog: "A font for the lizard cult+AAoACgAA-extended space"
Version: 001.000
ItalicAngle: 0
UnderlinePosition: -100
UnderlineWidth: 50
Ascent: 800
Descent: 200
InvalidEm: 0
LayerCount: 3
Layer: 0 0 "Back" 1
Layer: 1 0 "Fore" 0
Layer: 2 0 "Back 2" 1
XUID: [1021 371 -543982404 32167]
StyleMap: 0x0000
FSType: 0
OS2Version: 0
OS2_WeightWidthSlopeOnly: 0
OS2_UseTypoMetrics: 1
CreationTime: 1596865995
ModificationTime: 1596871551
PfmFamily: 17
TTFWeight: 400
TTFWidth: 5
LineGap: 90
VLineGap: 0
OS2TypoAscent: 0
OS2TypoAOffset: 1
OS2TypoDescent: 0
OS2TypoDOffset: 1
OS2TypoLinegap: 90
OS2WinAscent: 0
OS2WinAOffset: 1
OS2WinDescent: 0
OS2WinDOffset: 1
HheadAscent: 0
HheadAOffset: 1
HheadDescent: 0
HheadDOffset: 1
OS2Vendor: 'PfEd'
Lookup: 258 0 0 "Whitney-Light-'kern' Horizontal Kerning in Latin lookup 0" { "Whitney-Light-'kern' Horizontal Kerning in Latin lookup 0 subtable"  } ['kern' ('latn' <'dflt' > ) ]
MarkAttachClasses: 1
DEI: 91125
LangName: 1033
Encoding: ISO8859-1
UnicodeInterp: none
NameList: AGL For New Fonts
DisplaySize: -48
AntiAlias: 1
FitToEm: 0
WinInfo: 0 16 7
BeginPrivate: 0
EndPrivate
Grid
-782 100 m 4
 2218 100 l 1028
  Named: "raise"
900 1300 m 0
 900 -700 l 1024
  Named: "end"
100 1300 m 0
 100 -700 l 1024
  Named: "start"
EndSplineSet
TeXData: 1 0 0 241172 120586 80390 603224 1048576 80390 783286 444596 497025 792723 393216 433062 380633 303038 157286 324010 404750 52429 2506097 1059062 262144
BeginChars: 312 246

StartChar: a
Encoding: 97 97 0
Width: 1000
Flags: W
LayerCount: 3
Fore
SplineSet
177.975585938 -182.049804688 m 6
 177.975585938 -182.049804688 177.962890625 -182.061523438 177.962890625 -182.061523438 c 6
 139.765625 -195.69140625 97.1357421875 -183.098632812 72.4814453125 -150.901367188 c 4
 47.8271484375 -118.704101562 46.7900390625 -74.2587890625 69.9140625 -40.9501953125 c 4
 73.7529296875 -35.4072265625 75.9140625 -32.2958984375 75.9140625 -32.2958984375 c 5
 75.9140625 -32.2958984375 582.209960938 701.641601562 626.580078125 765.975585938 c 4
 628.641601562 768.962890625 630.950195312 771.765625 633.494140625 774.370117188 c 4
 634.629882812 775.54296875 636 776.950195312 637.568359375 778.555664062 c 4
 653.53125 794.950195312 676.431640625 802.604492188 699.049804688 799.111328125 c 4
 721.666992188 795.6171875 741.197265625 781.407226562 751.46875 760.975585938 c 4
 751.46875 760.962890625 751.46875 760.962890625 751.481445312 760.962890625 c 4
 752 759.92578125 752.395507812 758.827148438 752.641601562 757.69140625 c 4
 761.752929688 717.012695312 930.629882812 -37.2958984375 947.518554688 -112.741210938 c 4
 948.407226562 -116.741210938 948.45703125 -120.876953125 947.654296875 -124.901367188 c 4
 947.654296875 -124.9140625 947.654296875 -124.92578125 947.641601562 -124.938476562 c 4
 941.30859375 -156.629882812 916.728515625 -181.53125 885.123046875 -188.271484375 c 4
 853.505859375 -195.024414062 820.9140625 -182.333007812 802.185546875 -155.987304688 c 4
 801.568359375 -155.123046875 800.962890625 -154.284179688 800.395507812 -153.46875 c 4
 794.592773438 -145.30859375 790.592773438 -136 788.678710938 -126.16015625 c 4
 771.45703125 -37.53125 682.83984375 418.494140625 667.888671875 495.407226562 c 4
 667.53125 497.247070312 666.098632812 498.704101562 664.258789062 499.07421875 c 4
 662.407226562 499.45703125 660.518554688 498.678710938 659.46875 497.123046875 c 4
 611.6171875 426.22265625 304.370117188 -28.9140625 226.30859375 -144.54296875 c 4
 214.6171875 -161.876953125 197.678710938 -175.024414062 177.975585938 -182.049804688 c 6
EndSplineSet
Validated: 33
EndChar

StartChar: b
Encoding: 98 98 1
Width: 1000
Flags: W
HStem: -192.366 157.406<397.253 557.295>
LayerCount: 3
Fore
SplineSet
387.822265625 472.614257812 m 4
 357.306640625 367.940429688 349.911132812 321.504882812 340.336914062 210.68359375 c 4
 333.079101562 126.643554688 327.088867188 93.822265625 361.752929688 23.8115234375 c 4
 388.534179688 -30.287109375 454.4453125 -35.3759765625 483.911132812 -34.9599609375 c 4
 630.049804688 -32.9111328125 686.624023438 158.59375 748.83203125 247.416015625 c 4
 771.396484375 279.633789062 805.12890625 281.959960938 828.42578125 253.375976562 c 4
 865.970703125 207.327148438 825.772460938 113.040039062 807.385742188 68.1884765625 c 4
 754.87109375 -59.9111328125 624.959960938 -190.217773438 477.009765625 -192.366210938 c 4
 209.217773438 -196.237304688 174.237304688 99.861328125 186.504882812 308.475585938 c 4
 190.31640625 373.237304688 187.009765625 437.514648438 238.643554688 628.356445312 c 4
 251.455078125 675.693359375 310.40625 833.514648438 395.385742188 790.40625 c 4
 435.98046875 769.811523438 464.614257812 762.890625 457.791992188 711.356445312 c 4
 454.495117188 686.544921875 403.237304688 525.475585938 387.822265625 472.614257812 c 4
EndSplineSet
Validated: 33
EndChar

StartChar: c
Encoding: 99 99 2
Width: 1000
Flags: W
VStem: 88.1133 157.978<23.7876 190.503>
LayerCount: 3
Fore
SplineSet
783.26171875 752.840820312 m 4
 805.772460938 706.295898438 772.36328125 651.454101562 733.75 631.318359375 c 4
 510.75 515.056640625 237.5 298.01171875 246.090820312 77.681640625 c 4
 253.318359375 -107.715820312 518.193359375 -108.022460938 799.75 64.76171875 c 4
 843.306640625 91.48828125 897.23828125 70.8974609375 912.86328125 36.48828125 c 4
 941.272460938 -26.0791015625 892.943359375 -73.193359375 849.23828125 -90.76171875 c 4
 757.51171875 -140.25 658.306640625 -169.13671875 557.227539062 -188.23828125 c 4
 484.227539062 -202.227539062 409 -199.329101562 337.284179688 -179.772460938 c 4
 330.23828125 -177.897460938 323.397460938 -175.852539062 316.73828125 -173.681640625 c 4
 195.306640625 -134.409179688 107.431640625 -28.61328125 91.0908203125 97.9658203125 c 4
 88.4775390625 116.534179688 89.0908203125 133.795898438 88.11328125 151.954101562 c 4
 81.056640625 284.340820312 164.147460938 431.13671875 319.045898438 569.034179688 c 4
 410.954101562 650.86328125 486.579101562 706.76171875 679.579101562 790.545898438 c 4
 732.454101562 806.056640625 763.454101562 793.772460938 783.26171875 752.840820312 c 4
EndSplineSet
Validated: 33
EndChar

StartChar: d
Encoding: 100 100 3
Width: 1000
Flags: W
HStem: -197.078 169.18<112.526 205.711> 616.003 164.545<198.07 469.673>
LayerCount: 3
Fore
SplineSet
74.642578125 -138.45703125 m 4
 58.4169921875 -87.6376953125 106.805664062 -43.642578125 151.560546875 -27.8984375 c 4
 380.137695312 52.4921875 647.1484375 189.80078125 689.0859375 382.495117188 c 4
 714.70703125 500.255859375 502.293945312 633.541992188 280.790039062 616.002929688 c 4
 224.166015625 611.516601562 172.272460938 629.825195312 161.396484375 667.185546875 c 4
 141.641601562 735.129882812 197.805664062 769.5234375 254.918945312 780.547851562 c 4
 378.166992188 804.344726562 470.518554688 807.375976562 575.234375 782.061523438 c 4
 691.864257812 753.883789062 883.807617188 598.901367188 915.498046875 463.56640625 c 4
 939.428710938 361.374023438 919.458007812 255.916015625 903.032226562 221.390625 c 4
 889.970703125 193.965820312 886.326171875 115.31640625 640.247070312 -50.78125 c 4
 462.315429688 -170.865234375 205.282226562 -195.3203125 181.908203125 -197.078125 c 4
 120.821289062 -201.680664062 88.923828125 -183.1484375 74.642578125 -138.45703125 c 4
EndSplineSet
Validated: 33
EndChar

StartChar: e
Encoding: 101 101 4
Width: 1001
Flags: HMW
LayerCount: 3
Fore
SplineSet
164.71875 475.889648438 m 2
 164.71875 475.889648438 722.331054688 472.569335938 818.97265625 471.993164062 c 0
 836.465820312 471.887695312 853.825195312 468.814453125 870.291992188 462.893554688 c 0
 889.344726562 456.04296875 897.604492188 446.1640625 899.560546875 424.885742188 c 0
 901.7109375 401.598632812 873.552734375 365.434570312 834.952148438 364.047851562 c 2
 834.952148438 364.047851562 345.102539062 357.333984375 290.920898438 356.590820312 c 0
 288.057617188 356.552734375 285.569335938 354.604492188 284.849609375 351.831054688 c 0
 277.32421875 322.998046875 237.390625 169.924804688 228.25390625 134.893554688 c 0
 226.799804688 129.317382812 223.680664062 124.325195312 219.311523438 120.584960938 c 0
 204.344726562 108.038085938 184.467773438 101.508789062 163.721679688 102.874023438 c 0
 127.790039062 105.243164062 115.0625 120.64453125 105.6328125 139.09765625 c 0
 102.635742188 144.83203125 101.4296875 151.338867188 102.170898438 157.767578125 c 0
 107.739257812 206.366210938 133.8828125 432.125976562 133.8828125 432.125976562 c 2
 136.056640625 449.986328125 134.53515625 458.366210938 141.220703125 466.041992188 c 0
 148.74609375 474.668945312 155.3203125 475.913085938 164.71875 475.889648438 c 2
EndSplineSet
Validated: 33
EndChar

StartChar: f
Encoding: 102 102 5
Width: 1000
Flags: W
VStem: 199.018 134.289<-135.324 185.276>
LayerCount: 3
Fore
SplineSet
343.982421875 115.935546875 m 4
 341.71875 57.595703125 335.4765625 -96.3935546875 333.306640625 -114.307617188 c 4
 327.20703125 -164.815429688 313.4375 -181.427734375 283.576171875 -192.978515625 c 4
 215.565429688 -219.293945312 201.659179688 -42.6142578125 199.017578125 -2.708984375 c 4
 186.01953125 193.357421875 205.869140625 302.897460938 214.772460938 364.311523438 c 4
 246.349609375 581.888671875 410.3984375 835.490234375 596.3125 784.688476562 c 4
 738.83984375 745.744140625 798.751953125 618.118164062 819.608398438 476.579101562 c 4
 826.602539062 429.08984375 846.603515625 329.551757812 800.49609375 293.01953125 c 4
 771.876953125 270.342773438 739.75390625 279.779296875 724.798828125 315.7421875 c 4
 683.56640625 414.877929688 695.73828125 631.228515625 551.147460938 637.116210938 c 4
 520.034179688 638.379882812 480.780273438 638.194335938 453.319335938 595.576171875 c 4
 414.51171875 535.359375 406.426757812 505.728515625 384.364257812 426.100585938 c 4
 354.955078125 319.961914062 348.166015625 223.817382812 343.982421875 115.935546875 c 4
EndSplineSet
Validated: 33
EndChar

StartChar: g
Encoding: 103 103 6
Width: 1000
Flags: W
VStem: 593.641 146.79<-93.2414 49.8165>
LayerCount: 3
Fore
SplineSet
624.350585938 114.893554688 m 4
 639.513671875 217.669921875 650.133789062 309.806640625 641.12890625 415.404296875 c 4
 634.375 494.626953125 631.979492188 524.084960938 605.947265625 587.916015625 c 4
 587.528320312 633.091796875 550.435546875 640.224609375 520.784179688 644.54296875 c 4
 382.986328125 664.600585938 356.154296875 457.818359375 299.586914062 371.36328125 c 4
 279.068359375 340.000976562 247.012695312 336.768554688 223.96484375 363.2890625 c 4
 186.830078125 406.012695312 223.389648438 496.611328125 238.420898438 540.287109375 c 4
 283.232421875 670.458007812 362.516601562 780.549804688 504.221679688 792.122070312 c 4
 689.0625 807.220703125 799.274414062 538.288085938 790.578125 326.907226562 c 4
 788.114257812 267.243164062 787.473632812 160.122070312 740.430664062 -23.013671875 c 4
 730.859375 -60.2880859375 686.393554688 -224.927734375 626.733398438 -187.985351562 c 4
 600.537109375 -171.767578125 590.458007812 -153.615234375 593.640625 -104.763671875 c 4
 594.763671875 -87.4365234375 616.151367188 59.3134765625 624.350585938 114.893554688 c 4
EndSplineSet
Validated: 33
EndChar

StartChar: h
Encoding: 104 104 7
Width: 1000
LayerCount: 3
Fore
SplineSet
477.951171875 101.013671875 m 4
 282.068359375 114.671875 264.421875 215.155273438 265.833984375 297.858398438 c 4
 267.333984375 387.4609375 349.303710938 532.767578125 492.775390625 539.966796875 c 4
 587.627929688 544.721679688 688.215820312 417.319335938 686.715820312 292.79296875 c 4
 685.568359375 202.263671875 590.98046875 93.1259765625 477.951171875 101.013671875 c 4
480.951171875 383.092773438 m 4
 440.8046875 377.049804688 391.569335938 328.413085938 388.48046875 300.504882812 c 4
 385.391601562 272.693359375 414.862304688 244.291015625 457.48046875 239.260742188 c 4
 503.36328125 233.833984375 535.74609375 278.40234375 540.069335938 308.658203125 c 4
 545.715820312 348.381835938 527.892578125 390.161132812 480.951171875 383.092773438 c 4
EndSplineSet
Validated: 33
EndChar

StartChar: i
Encoding: 105 105 8
Width: 238
Flags: W
VStem: 97.752 107.383<646.567 759.387>
LayerCount: 3
Fore
SplineSet
205.134765625 746.107421875 m 0
 217.845703125 701.650390625 187.377929688 293.454101562 180.181640625 208.6875 c 0
 172.518554688 119.014648438 158.686523438 -92.3408203125 138.5 -134.901367188 c 0
 97.00390625 -222.3125 25.8828125 -196.995117188 18.6865234375 -128.696289062 c 0
 1.8642578125 30.734375 1.6767578125 197.014648438 35.322265625 389.509765625 c 0
 55.0419921875 502.5 69.8076171875 630.041992188 97.751953125 747.126953125 c 0
 111.303710938 834.37890625 193.639648438 786.28515625 205.134765625 746.107421875 c 0
EndSplineSet
Validated: 33
EndChar

StartChar: j
Encoding: 106 106 9
Width: 1000
Flags: W
VStem: 213.513 128.606<39.1557 210.135> 588.259 175.457<378.133 732.545> 603.199 183.189<180.785 593.605>
LayerCount: 3
Fore
SplineSet
603.19921875 455.326171875 m 4xa0
 602.395507812 509.84765625 587.50390625 695.374023438 588.258789062 720.145507812 c 4
 589.822265625 771.587890625 618.911132812 773.782226562 661.873046875 787.415039062 c 4
 751.818359375 815.951171875 759.149414062 652.334960938 763.715820312 603.9921875 c 4xc0
 782.125976562 409.248046875 790.965820312 320.90625 786.388671875 257.658203125 c 4
 771.990234375 58.814453125 709.423828125 -203.087890625 467.955078125 -195.711914062 c 4
 320.846679688 -191.23046875 243.338867188 -65.6240234375 213.512695312 42.1171875 c 4
 200.880859375 87.736328125 203.205078125 170.84375 244.678710938 226.444335938 c 4
 285.767578125 281.51171875 353.374023438 263.078125 342.119140625 176.872070312 c 4
 334.135742188 115.760742188 342.733398438 1.5302734375 440.323242188 -19.197265625 c 4
 497.686523438 -31.3857421875 517.908203125 2.7080078125 530.1171875 20.4892578125 c 4
 553.243164062 54.1767578125 574.24609375 126.072265625 584.848632812 194.32421875 c 4
 587.224609375 209.631835938 605.366210938 308.778320312 603.19921875 455.326171875 c 4xa0
EndSplineSet
Validated: 33
EndChar

StartChar: k
Encoding: 107 107 10
Width: 1000
Flags: W
LayerCount: 3
Fore
SplineSet
807.349609375 631.228515625 m 4
 563.85546875 523.241210938 391.807617188 458.72265625 253.373046875 366.373046875 c 4
 246.505859375 361.686523438 241.927734375 354.216796875 241.083984375 345.927734375 c 4
 240.120117188 337.650390625 242.891601562 329.373046875 248.5546875 323.2890625 c 4
 387.469726562 202.541992188 864.096679688 -45.083984375 935.541992188 -82.1689453125 c 4
 997.590820312 -114.325195312 889.518554688 -210.180664062 838.072265625 -194.590820312 c 4
 653.373046875 -138.614257812 246.385742188 108.69921875 107.7109375 245.794921875 c 4
 55.1806640625 297.686523438 37.228515625 310.481445312 41.6865234375 360.30078125 c 4
 47.8310546875 430.241210938 449.27734375 676.072265625 828.5546875 793.264648438 c 4
 868.794921875 805.674804688 921.686523438 771.614257812 904.096679688 717.252929688 c 4
 894.336914062 686.903320312 864.819335938 656.69921875 807.349609375 631.228515625 c 4
EndSplineSet
Validated: 33
EndChar

StartChar: l
Encoding: 108 108 11
Width: 1000
Flags: W
HStem: 101.025 114.401<828.403 876.711>
LayerCount: 3
Fore
SplineSet
180.6796875 119.053710938 m 6
 170.66796875 119.029296875 163.666992188 120.354492188 155.651367188 129.543945312 c 4
 148.529296875 137.71875 150.149414062 146.645507812 147.833984375 165.670898438 c 6
 147.833984375 165.670898438 109.249023438 468.8984375 101.775390625 528.075195312 c 4
 100.889648438 535.069335938 102.174804688 542.166015625 105.448242188 548.41015625 c 4
 115.484375 567.954101562 129.080078125 584.241210938 167.203125 586.749023438 c 4
 187.754882812 588.10546875 207.505859375 582.189453125 222.994140625 570.62890625 c 4
 229.852539062 565.471679688 234.1796875 557.630859375 234.881835938 549.081054688 c 4
 239.122070312 497.83203125 256.623046875 286.235351562 259.791992188 248.000976562 c 4
 260.072265625 244.599609375 262.826171875 241.940429688 266.235351562 241.78125 c 4
 326.745117188 238.946289062 828.403320312 215.426757812 828.403320312 215.426757812 c 6
 869.520507812 213.94140625 899.508789062 175.419921875 897.224609375 150.61328125 c 4
 895.140625 127.962890625 886.350585938 117.440429688 866.079101562 110.143554688 c 4
 847.7890625 103.564453125 828.419921875 100.466796875 808.979492188 101.025390625 c 4
 705.723632812 103.987304688 180.6796875 119.053710938 180.6796875 119.053710938 c 6
EndSplineSet
Validated: 33
EndChar

StartChar: m
Encoding: 109 109 12
Width: 1000
HStem: 377.802 113.631<114.938 169.356 169.737 766.906>
VStem: 768.158 126.125<116.004 377.75>
LayerCount: 3
Fore
SplineSet
863.76953125 491.432617188 m 6
 873.649414062 491.45703125 880.56640625 490.157226562 888.46875 481.080078125 c 4
 895.49609375 473.013671875 893.897460938 464.212890625 896.181640625 445.430664062 c 6
 896.181640625 445.430664062 894.283203125 149.256835938 894.283203125 149.107421875 c 6
 894.283203125 149.107421875 894.283203125 149.098632812 894.283203125 149.091796875 c 4
 893.787109375 115.931640625 878.2265625 103.900390625 834.107421875 100.994140625 c 4
 814.529296875 99.7021484375 795.692382812 105.098632812 780.66015625 115.7421875 c 4
 772.869140625 121.264648438 768.211914062 130.21484375 768.158203125 139.771484375 c 4
 767.897460938 184.915039062 767.014648438 337.331054688 766.818359375 371.153320312 c 4
 766.801757812 374.83984375 763.79296875 377.818359375 760.09765625 377.801757812 c 4
 694.573242188 377.526367188 169.356445312 375.2734375 169.356445312 375.2734375 c 6
 109.181640625 376.73046875 99.19140625 414.744140625 101.4453125 439.22265625 c 4
 103.517578125 461.65234375 112.247070312 472.036132812 132.391601562 479.245117188 c 4
 149.684570312 485.4375 167.907226562 488.635742188 186.272460938 488.71484375 c 4
 287.297851562 489.1171875 863.76953125 491.432617188 863.76953125 491.432617188 c 6
EndSplineSet
Validated: 33
EndChar

StartChar: n
Encoding: 110 110 13
Width: 1000
LayerCount: 3
Fore
SplineSet
169.024414062 -166.336914062 m 4
 132.638671875 -199.927734375 -46.5185546875 -213 12.638671875 -50.638671875 c 4
 14.083984375 -46.9638671875 15.650390625 -43.3974609375 17.69921875 -40 c 4
 51.794921875 19.578125 420.228515625 663.1328125 480.469726562 768.494140625 c 4
 490.590820312 786.024414062 509.626953125 796.30078125 529.8671875 794.975585938 c 4
 542.758789062 794.120117188 554.4453125 788.096679688 564.927734375 776.626953125 c 4
 579.264648438 760.84375 588.783203125 741.192382812 592.15625 720.096679688 c 4
 599.626953125 674.047851562 633.481445312 463.819335938 644.927734375 392.819335938 c 4
 645.530273438 389.036132812 648.421875 386.024414062 652.15625 385.216796875 c 4
 655.891601562 384.421875 659.747070312 385.98828125 661.794921875 389.180664062 c 4
 710.7109375 463.205078125 881.072265625 721.349609375 914.807617188 772.252929688 c 4
 921.192382812 781.903320312 932.27734375 787.30078125 943.84375 786.30078125 c 4
 966.735351562 784.458007812 982.879882812 758.590820312 994.325195312 711.56640625 c 4
 997.336914062 699.14453125 996.85546875 686.120117188 992.879882812 673.975585938 c 4
 956.1328125 561.505859375 750.228515625 -68.6025390625 731.794921875 -124.373046875 c 4
 730.7109375 -127.69921875 729.385742188 -130.916015625 727.69921875 -133.98828125 c 4
 685.047851562 -213.530273438 628.783203125 -214.1328125 544.807617188 -156.349609375 c 4
 504.325195312 -128.481445312 440.7109375 -22.4091796875 406.494140625 195.421875 c 4
 406.01171875 198.421875 403.602539062 200.747070312 400.590820312 201.108398438 c 4
 397.578125 201.469726562 394.56640625 199.794921875 393.481445312 196.98828125 c 4
 329.264648438 46.2412109375 263.84375 -78.794921875 169.024414062 -166.336914062 c 4
EndSplineSet
Validated: 33
EndChar

StartChar: o
Encoding: 111 111 14
Width: 1000
Flags: W
LayerCount: 3
Fore
SplineSet
508.21875 791.198242188 m 4
 690.90625 788.791992188 850.208007812 587.125 872.729492188 306.53125 c 4
 894.645507812 33.3642578125 724.833007812 -140.75 520.323242188 -186.760742188 c 4
 242.09375 -249.354492188 77.3017578125 -0.1357421875 143.71875 306.53125 c 4
 199.75 565.270507812 334.21875 793.479492188 508.21875 791.198242188 c 4
474.5 542.448242188 m 4
 372.84375 525.510742188 342.770507812 432.823242188 323.541992188 325.166992188 c 4
 292.875 153.541992188 394.40625 34.75 528.239257812 54.8330078125 c 4
 626.635742188 69.59375 686.21875 242.1875 689.125 293.625 c 4
 695.291992188 402.895507812 615.573242188 565.958007812 474.5 542.448242188 c 4
EndSplineSet
Validated: 33
EndChar

StartChar: p
Encoding: 112 112 15
Width: 1003
Flags: W
HStem: 6.65332 157.024<296.335 706.583> 54.0029 152.397<808.906 900.699>
LayerCount: 3
Fore
SplineSet
680.540039062 163.677734375 m 4x80
 800.916992188 176.866210938 840.797851562 197.270507812 912.366210938 206.400390625 c 4
 961.171875 212.62890625 979.314453125 196.34375 994.38671875 169.291992188 c 4
 1028.70019531 107.663085938 890.876953125 69.7587890625 825.953125 54.0029296875 c 4x40
 640.443359375 8.9921875 574.296875 5.3369140625 459.905273438 6.6533203125 c 4
 247.26171875 9.1162109375 -15.18359375 108.850585938 8.5849609375 293.749023438 c 4
 26.8125 435.505859375 158.255859375 554.219726562 291.060546875 593.14453125 c 4
 335.607421875 606.203125 428.282226562 638.697265625 469.459960938 599.408203125 c 4
 495.004882812 575.03125 485.408203125 549.499023438 457.826171875 523.853515625 c 4
 380.391601562 451.853515625 201.653320312 373.134765625 174.788085938 270.537109375 c 4
 157.037109375 202.754882812 288.5234375 161.065429688 378.012695312 160.842773438 c 4
 484.543945312 160.578125 576.7421875 152.3046875 680.540039062 163.677734375 c 4x80
EndSplineSet
Validated: 33
EndChar

StartChar: q
Encoding: 113 113 16
Width: 1000
HStem: 4.52539 157.437<294.536 705.855>
LayerCount: 3
Fore
SplineSet
320.646484375 161.961914062 m 4
 424.715820312 150.557617188 517.155273438 158.853515625 623.963867188 159.1171875 c 4
 713.686523438 159.342773438 845.515625 201.139648438 827.71875 269.098632812 c 4
 800.784179688 371.963867188 621.579101562 450.887695312 543.942382812 523.075195312 c 4
 516.288085938 548.7890625 506.666015625 574.387695312 532.278320312 598.830078125 c 4
 573.5625 638.219726562 666.479492188 605.641601562 711.143554688 592.548828125 c 4
 844.295898438 553.520507812 976.081054688 434.498046875 994.35546875 292.370117188 c 4
 1018.18652344 106.990234375 755.057617188 6.9951171875 541.856445312 4.525390625 c 4
 427.166992188 3.20703125 360.848632812 6.87109375 174.853515625 52 c 4
 109.760742188 67.7958984375 -28.4208984375 105.801757812 5.9814453125 167.58984375 c 4
 21.0927734375 194.711914062 39.28125 211.040039062 88.2158203125 204.793945312 c 4
 159.970703125 195.641601562 199.955078125 175.18359375 320.646484375 161.961914062 c 4
EndSplineSet
Validated: 33
EndChar

StartChar: r
Encoding: 114 114 17
Width: 1000
Flags: W
LayerCount: 3
Fore
SplineSet
124.536132812 677.798828125 m 6
 88.828125 729.415039062 122.692382812 791.448242188 180.70703125 795.5 c 4
 212.079101562 797.629882812 242.396484375 783.703125 261.211914062 758.500976562 c 4
 341.002929688 652.403320312 788.908203125 52.76171875 873.922851562 -61.0478515625 c 4
 889.202148438 -81.501953125 894.639648438 -107.671875 888.763671875 -132.51953125 c 4
 875.905273438 -188.145507812 819.169921875 -207.970703125 779.397460938 -184.520507812 c 4
 771.913085938 -180.147460938 765.380859375 -174.334960938 760.173828125 -167.407226562 c 4
 714.927734375 -107.30078125 124.536132812 677.798828125 124.536132812 677.798828125 c 6
EndSplineSet
Validated: 33
EndChar

StartChar: s
Encoding: 115 115 18
Width: 1000
Flags: W
LayerCount: 3
Fore
SplineSet
877.360351562 676.431640625 m 6
 877.360351562 676.431640625 286.96875 -108.668945312 241.72265625 -168.775390625 c 4
 236.515625 -175.703125 229.983398438 -181.515625 222.499023438 -185.887695312 c 4
 182.7265625 -209.338867188 125.9921875 -189.512695312 113.1328125 -133.887695312 c 4
 107.256835938 -109.040039062 112.694335938 -82.8701171875 127.973632812 -62.416015625 c 4
 212.98828125 51.3935546875 660.893554688 651.036132812 740.684570312 757.133789062 c 4
 759.5 782.334960938 789.817382812 796.26171875 821.189453125 794.1328125 c 4
 879.205078125 790.080078125 913.068359375 728.046875 877.360351562 676.431640625 c 6
EndSplineSet
Validated: 33
EndChar

StartChar: t
Encoding: 116 116 19
Width: 1000
HStem: 120.377 145.046<120.893 464.534>
LayerCount: 3
Fore
SplineSet
850.973632812 100.725585938 m 6
 850.973632812 100.725585938 286.34375 116.799804688 163.786132812 120.376953125 c 4
 142.977539062 120.967773438 124.133789062 132.8203125 114.59375 151.318359375 c 4
 102.944335938 173.978515625 97.001953125 204.276367188 107.232421875 229.291992188 c 4
 117.028320312 252.361328125 140.240234375 266.80859375 165.268554688 265.422851562 c 4
 256.284179688 260.76953125 705.516601562 237.788085938 829.982421875 231.262695312 c 4
 864.25390625 229.505859375 892.801757812 204.369140625 898.877929688 170.591796875 c 4
 905.197265625 134.622070312 886.560546875 101.607421875 850.973632812 100.725585938 c 6
EndSplineSet
Validated: 33
EndChar

StartChar: u
Encoding: 117 117 20
Width: 1000
LayerCount: 3
Fore
SplineSet
230.612304688 640.418945312 m 4
 173.747070312 412.118164062 159.274414062 197.870117188 243.584960938 59.9384765625 c 4
 266.396484375 22.7041015625 304.221679688 -2.814453125 347.288085938 -10.046875 c 4
 390.346679688 -17.271484375 434.435546875 -5.4931640625 468.15234375 22.251953125 c 4
 640.952148438 165.458007812 741.928710938 386.080078125 852.016601562 625.3984375 c 4
 875.251953125 675.909179688 1017.33691406 656.26171875 997.954101562 595.732421875 c 4
 949.725585938 445.124023438 929.434570312 385.431640625 871.87890625 269.640625 c 4
 834.333007812 194.095703125 793.206054688 84.8154296875 686.33984375 -63.1357421875 c 4
 559.297851562 -239.03515625 301.278320312 -243.981445312 138.397460938 -65.76953125 c 4
 -40.2998046875 129.732421875 -19.8662109375 343.715820312 65.1376953125 617.8984375 c 4
 95.791015625 716.775390625 246.693359375 705.0234375 230.612304688 640.418945312 c 4
EndSplineSet
Validated: 33
EndChar

StartChar: v
Encoding: 118 118 21
Width: 1000
VStem: 5.51953 139.675<475.451 556.294>
LayerCount: 3
Fore
SplineSet
145.194335938 513.788085938 m 4
 229.666015625 297.821289062 271.345703125 155.057617188 345.516601562 16.4912109375 c 4
 349.055664062 9.947265625 355.340820312 5.3740234375 362.64453125 3.8955078125 c 4
 369.952148438 2.521484375 377.493164062 4.4873046875 383.202148438 9.255859375 c 4
 504.190429688 128.306640625 819.64453125 553.52734375 867.637695312 604.243164062 c 4
 922.216796875 661.991210938 1031.41308594 605.49609375 978.686523438 517.098632812 c 4
 895.017578125 376.8046875 562.62890625 -27.5615234375 438.37109375 -142.486328125 c 4
 391.3359375 -186.020507812 379.545898438 -201.090820312 336.51953125 -195.291992188 c 4
 276.11328125 -187.249023438 92.4130859375 205.041992188 5.51953125 538.567382812 c 4
 -3.6845703125 573.837890625 27.90234375 618.37890625 74.3505859375 601.122070312 c 4
 100.284179688 591.376953125 125.329101562 564.609375 145.194335938 513.788085938 c 4
EndSplineSet
Validated: 33
EndChar

StartChar: w
Encoding: 119 119 22
Width: 1000
VStem: 5.25977 132.367<-154.393 27.8155> 781.737 184.728<-133.45 23.2618>
LayerCount: 3
Fore
SplineSet
781.737304688 -100.59375 m 0
 822.810546875 124.373046875 844.0234375 335.568359375 790.73046875 497.366210938 c 0
 765.943359375 571.302734375 705.814453125 627.947265625 630.53125 648.294921875 c 0
 555.240234375 668.653320312 474.76953125 650.01171875 416.107421875 598.627929688 c 0
 203.499023438 413.903320312 158.194335938 87.6748046875 137.626953125 -152.07421875 c 0
 132.296875 -214.1875 7.09375 -199.587890625 5.259765625 -131.370117188 c 0
 -2.5693359375 158.497070312 163.8671875 601.654296875 313.706054688 700.36328125 c 0
 400.736328125 757.701171875 485.625 796.126953125 596.56640625 794.859375 c 0
 717.8984375 793.475585938 837.081054688 781.212890625 906.65234375 655.463867188 c 0
 1052.58398438 391.732421875 965.391601562 209.723632812 966.46484375 -100.643554688 c 0
 966.868164062 -215.0859375 764.491210938 -195.125 781.737304688 -100.59375 c 0
EndSplineSet
Validated: 33
EndChar

StartChar: x
Encoding: 120 120 23
Width: 1000
Flags: W
LayerCount: 3
Fore
SplineSet
183.98828125 630.674804688 m 4
 126.518554688 656.14453125 97 686.349609375 87.2412109375 716.69921875 c 4
 69.650390625 771.060546875 122.541992188 805.120117188 162.783203125 792.7109375 c 4
 542.060546875 675.518554688 943.505859375 429.686523438 949.650390625 359.747070312 c 4
 954.108398438 309.927734375 936.15625 297.1328125 883.626953125 245.241210938 c 4
 744.952148438 108.14453125 337.963867188 -139.168945312 153.264648438 -195.14453125 c 4
 101.819335938 -210.735351562 -6.2529296875 -114.879882812 55.794921875 -82.72265625 c 4
 127.241210938 -45.638671875 603.8671875 201.98828125 742.783203125 322.735351562 c 4
 748.4453125 328.819335938 751.216796875 337.096679688 750.252929688 345.373046875 c 4
 749.409179688 353.663085938 744.831054688 361.1328125 737.963867188 365.819335938 c 4
 599.530273438 458.168945312 427.481445312 522.686523438 183.98828125 630.674804688 c 4
EndSplineSet
Validated: 33
EndChar

StartChar: y
Encoding: 121 121 24
Width: 1000
HStem: 94.4629 113.245<126.503 174.321>
VStem: 761.848 131.763<348.9 559.081>
LayerCount: 3
Fore
SplineSet
815.501953125 112.30859375 m 6
 815.501953125 112.30859375 295.762695312 97.39453125 193.549804688 94.462890625 c 4
 174.305664062 93.91015625 155.1328125 96.9765625 137.026367188 103.48828125 c 4
 116.959960938 110.711914062 108.258789062 121.127929688 106.1953125 143.549804688 c 4
 103.935546875 168.10546875 133.620117188 206.23828125 174.321289062 207.708007812 c 6
 174.321289062 207.708007812 670.913085938 230.991210938 730.811523438 233.796875 c 4
 734.186523438 233.954101562 736.913085938 236.5859375 737.189453125 239.953125 c 4
 740.327148438 277.801757812 757.650390625 487.260742188 761.84765625 537.9921875 c 4
 762.54296875 546.456054688 766.827148438 554.217773438 773.615234375 559.322265625 c 4
 788.947265625 570.766601562 808.5 576.623046875 828.84375 575.279296875 c 4
 866.581054688 572.797851562 880.040039062 556.674804688 889.974609375 537.328125 c 4
 893.21484375 531.147460938 894.487304688 524.122070312 893.610351562 517.198242188 c 4
 886.212890625 458.619140625 848.016601562 158.455078125 848.016601562 158.455078125 c 6
 845.724609375 139.622070312 847.329101562 130.786132812 840.279296875 122.693359375 c 4
 832.34375 113.596679688 825.413085938 112.28515625 815.501953125 112.30859375 c 6
EndSplineSet
Validated: 33
EndChar

StartChar: z
Encoding: 122 122 25
Width: 1000
HStem: -195.127 271.204<529.237 963.677> 483.741 172.774<98.319 395.579>
LayerCount: 3
Fore
SplineSet
62.16015625 656.515625 m 4
 116.377929688 658.852539062 591.814453125 671.374023438 672.494140625 647.943359375 c 4
 750.208007812 625.366210938 799.90625 574.91796875 779.509765625 519.4609375 c 4
 761.05078125 468.987304688 554.765625 276.811523438 408.635742188 148.560546875 c 4
 401.666015625 142.44140625 398.1796875 133.328125 399.083984375 124.098632812 c 4
 399.987304688 114.868164062 405.279296875 106.645507812 413.412109375 102.049804688 c 4
 501.967773438 79.4716796875 703.993164062 75.328125 935.580078125 76.0771484375 c 4
 949.521484375 76.115234375 961.78515625 66.3173828125 964.625 52.58203125 c 4
 981.665039062 -27.181640625 989.41015625 -102.336914062 983.6015625 -170.677734375 c 4
 982.181640625 -184.826171875 970.176757812 -195.48828125 955.9765625 -195.126953125 c 4
 565.22265625 -185.497070312 259.795898438 -162.841796875 147.747070312 -75.8740234375 c 4
 77.650390625 -21.373046875 77.779296875 50.58203125 124.251953125 118.999023438 c 4
 202.73828125 234.5859375 351.0625 340.387695312 450.848632812 453.586914062 c 4
 455.3671875 458.995117188 456.399414062 466.534179688 453.430664062 472.962890625 c 4
 450.590820312 479.405273438 444.264648438 483.599609375 437.166015625 483.741210938 c 4
 285.2265625 487.033203125 133.8046875 494.908203125 70.6796875 506.616210938 c 4
 -9.2275390625 521.435546875 -4.966796875 653.624023438 62.16015625 656.515625 c 4
EndSplineSet
Validated: 33
EndChar

StartChar: exclam
Encoding: 33 33 28
Width: 264
Flags: W
LayerCount: 3
Fore
SplineSet
161 690 m 1
 145 185 l 1
 119 179 l 1
 103 690 l 1
 161 690 l 1
162 0 m 1
 102 0 l 1
 102 81 l 1
 162 81 l 1
 162 0 l 1
EndSplineSet
Validated: 1
EndChar

StartChar: quotedbl
Encoding: 34 34 29
Width: 369
Flags: W
LayerCount: 3
Fore
SplineSet
294 676 m 1
 275 492 l 1
 250 497 l 1
 231 676 l 1
 294 676 l 1
137 676 m 1
 119 492 l 1
 93 497 l 1
 75 676 l 1
 137 676 l 1
EndSplineSet
Validated: 1
EndChar

StartChar: numbersign
Encoding: 35 35 30
Width: 637
Flags: W
LayerCount: 3
Fore
SplineSet
195 186 m 1
 165 -7 l 1
 127 1 l 1
 156 186 l 1
 46 186 l 1
 46 227 l 1
 163 227 l 1
 198 449 l 1
 73 449 l 1
 67 490 l 1
 204 490 l 1
 234 678 l 1
 272 678 l 1
 243 490 l 1
 441 490 l 1
 472 683 l 1
 510 675 l 1
 481 490 l 1
 591 490 l 1
 591 449 l 1
 474 449 l 1
 439 227 l 1
 564 227 l 1
 570 186 l 1
 433 186 l 1
 403 -2 l 1
 364 -2 l 1
 394 186 l 1
 195 186 l 1
236 449 m 1
 202 227 l 1
 400 227 l 1
 435 449 l 1
 236 449 l 1
EndSplineSet
Validated: 1
EndChar

StartChar: dollar
Encoding: 36 36 31
Width: 543
Flags: W
LayerCount: 3
Fore
SplineSet
343 674 m 1
 381 669 417 658 447 646 c 1
 439 602 l 1
 408 616 372 627 337 634 c 1
 295 367 l 1
 421 321 473 274 473 183 c 0
 473 73 390 -4 261 -4 c 0
 253 -4 245 -4 237 -3 c 1
 218 -124 l 1
 183 -116 l 1
 201 0 l 1
 152 7 107 22 64 39 c 1
 71 84 l 1
 111 65 158 48 208 40 c 1
 254 337 l 1
 142 376 77 416 77 512 c 0
 77 613 154 680 275 680 c 0
 286 680 297 680 307 679 c 0
 308 679 319 755 319 755 c 1
 355 746 l 1
 343 674 l 1
243 36 m 1
 250 35 258 35 266 35 c 0
 371 35 430 100 430 178 c 0
 430 244 400 286 289 326 c 1
 243 36 l 1
302 639 m 1
 291 641 281 641 271 641 c 0
 172 641 121 585 121 514 c 0
 121 442 166 413 261 378 c 1
 302 639 l 1
EndSplineSet
Validated: 1
EndChar

StartChar: percent
Encoding: 37 37 32
Width: 864
Flags: W
LayerCount: 3
Fore
SplineSet
363 501 m 0
 363 389 300 318 216 318 c 0
 131 318 68 389 68 501 c 0
 68 612 131 684 216 684 c 0
 300 684 363 612 363 501 c 0
667 674 m 1
 233 -7 l 1
 195 2 l 1
 629 683 l 1
 667 674 l 1
319 501 m 0
 319 584 279 647 215 647 c 0
 150 647 112 584 112 501 c 0
 112 417 152 355 217 355 c 0
 281 355 319 417 319 501 c 0
796 175 m 0
 796 63 733 -8 649 -8 c 0
 564 -8 501 63 501 175 c 0
 501 286 564 358 649 358 c 0
 733 358 796 286 796 175 c 0
752 175 m 0
 752 258 712 321 648 321 c 0
 583 321 545 258 545 175 c 0
 545 91 585 29 650 29 c 0
 714 29 752 91 752 175 c 0
EndSplineSet
Validated: 1
EndChar

StartChar: ampersand
Encoding: 38 38 33
Width: 685
Flags: W
LayerCount: 3
Fore
SplineSet
662 6 m 1
 611 -6 l 1
 492 113 l 1
 433 32 355 -10 264 -10 c 0
 135 -10 52 71 52 177 c 0
 52 284 124 346 221 388 c 1
 171 442 146 483 146 545 c 0
 146 633 214 700 320 700 c 0
 377 700 429 684 477 656 c 1
 466 607 l 1
 414 640 364 657 318 657 c 0
 241 657 196 609 196 548 c 0
 196 495 218 459 274 402 c 2
 485 185 l 1
 514 241 536 312 549 403 c 1
 596 393 l 1
 579 296 553 215 517 153 c 1
 662 6 l 1
461 145 m 1
 253 356 l 1
 157 319 101 260 101 179 c 0
 101 96 169 33 264 33 c 0
 340 33 409 68 461 145 c 1
EndSplineSet
Validated: 1
EndChar

StartChar: quoteright
Encoding: 257 8217 34
Width: 212
Flags: W
LayerCount: 3
Fore
SplineSet
154 690 m 1
 80 476 l 1
 54 482 l 1
 93 690 l 1
 154 690 l 1
EndSplineSet
Validated: 1
EndChar

StartChar: parenleft
Encoding: 40 40 35
Width: 392
Flags: W
LayerCount: 3
Fore
SplineSet
338 -87 m 1
 288 -97 l 1
 165 11 75 136 75 309 c 0
 75 486 163 621 328 727 c 1
 337 683 l 1
 195 586 124 472 124 308 c 0
 124 151 204 28 338 -87 c 1
EndSplineSet
Validated: 1
EndChar

StartChar: parenright
Encoding: 41 41 36
Width: 392
Flags: W
LayerCount: 3
Fore
SplineSet
317 317 m 0
 317 140 229 5 64 -101 c 1
 55 -57 l 1
 197 40 268 154 268 318 c 0
 268 475 188 598 54 713 c 1
 104 723 l 1
 227 615 317 490 317 317 c 0
EndSplineSet
Validated: 1
EndChar

StartChar: asterisk
Encoding: 42 42 37
Width: 410
Flags: W
LayerCount: 3
Fore
SplineSet
355 581 m 1
 233 531 l 1
 303 415 l 1
 292 408 l 1
 205 512 l 1
 118 408 l 1
 107 415 l 1
 176 531 l 1
 55 581 l 1
 59 594 l 1
 187 564 l 1
 198 697 l 1
 212 697 l 1
 223 564 l 1
 351 594 l 1
 355 581 l 1
EndSplineSet
Validated: 1
EndChar

StartChar: plus
Encoding: 43 43 38
Width: 568
Flags: W
LayerCount: 3
Fore
SplineSet
508 319 m 1
 305 319 l 1
 305 114 l 1
 264 114 l 1
 264 319 l 1
 60 319 l 1
 60 357 l 1
 264 357 l 1
 264 562 l 1
 305 562 l 1
 305 357 l 1
 508 357 l 1
 508 319 l 1
EndSplineSet
Validated: 1
EndChar

StartChar: comma
Encoding: 44 44 39
Width: 212
Flags: W
LayerCount: 3
Fore
SplineSet
151 81 m 1
 62 -133 l 1
 37 -127 l 1
 90 81 l 1
 151 81 l 1
EndSplineSet
Validated: 1
EndChar

StartChar: hyphen
Encoding: 45 45 40
Width: 372
Flags: W
LayerCount: 3
Fore
SplineSet
306 257 m 1
 66 257 l 1
 66 307 l 1
 306 307 l 1
 306 257 l 1
EndSplineSet
Validated: 1
EndChar

StartChar: period
Encoding: 46 46 41
Width: 212
Flags: W
LayerCount: 3
Fore
SplineSet
136 0 m 1
 76 0 l 1
 76 81 l 1
 136 81 l 1
 136 0 l 1
EndSplineSet
Validated: 1
EndChar

StartChar: slash
Encoding: 47 47 42
Width: 501
Flags: W
LayerCount: 3
Fore
SplineSet
480 686 m 1
 8 -122 l 1
 -34 -113 l 1
 438 695 l 1
 480 686 l 1
EndSplineSet
Validated: 1
EndChar

StartChar: zero
Encoding: 48 48 43
Width: 613
Flags: W
LayerCount: 3
Fore
SplineSet
546 339 m 0
 546 132 457 -13 306 -13 c 0
 155 -13 67 131 67 337 c 0
 67 543 156 689 307 689 c 0
 458 689 546 545 546 339 c 0
497 338 m 0
 497 515 432 647 307 647 c 0
 181 647 116 515 116 338 c 0
 116 161 181 29 307 29 c 0
 432 29 497 161 497 338 c 0
EndSplineSet
Validated: 1
EndChar

StartChar: one
Encoding: 49 49 44
Width: 354
Flags: W
LayerCount: 3
Fore
SplineSet
238 0 m 1
 191 0 l 1
 191 626 l 1
 42 563 l 1
 35 603 l 1
 204 680 l 1
 238 680 l 1
 238 0 l 1
EndSplineSet
Validated: 1
EndChar

StartChar: two
Encoding: 50 50 45
Width: 536
Flags: W
LayerCount: 3
Fore
SplineSet
469 0 m 1
 55 0 l 1
 55 32 l 1
 303 301 l 2
 384 389 408 438 408 508 c 0
 408 594 353 647 265 647 c 0
 195 647 134 612 80 566 c 1
 72 615 l 1
 123 656 186 689 267 689 c 0
 387 689 457 617 457 511 c 0
 457 427 423 367 340 278 c 2
 119 41 l 1
 463 41 l 1
 469 0 l 1
EndSplineSet
Validated: 1
EndChar

StartChar: three
Encoding: 51 51 46
Width: 531
Flags: W
LayerCount: 3
Fore
SplineSet
460 181 m 0
 460 69 366 -13 240 -13 c 0
 165 -13 100 9 54 40 c 1
 62 88 l 1
 121 48 170 29 242 29 c 0
 345 29 411 93 411 180 c 0
 411 273 346 336 205 336 c 2
 176 336 l 1
 171 379 l 1
 212 379 l 2
 332 379 398 436 398 521 c 0
 398 594 348 647 254 647 c 0
 182 647 123 619 71 581 c 1
 65 627 l 1
 117 664 178 689 256 689 c 0
 381 689 447 615 447 523 c 0
 447 432 384 383 314 360 c 1
 402 334 460 278 460 181 c 0
EndSplineSet
Validated: 1
EndChar

StartChar: four
Encoding: 52 52 47
Width: 596
Flags: W
LayerCount: 3
Fore
SplineSet
557 166 m 1
 443 166 l 1
 443 0 l 1
 398 0 l 1
 398 166 l 1
 45 166 l 1
 45 197 l 1
 384 680 l 1
 443 680 l 1
 443 206 l 1
 557 206 l 1
 557 166 l 1
398 206 m 1
 398 629 l 1
 100 206 l 1
 398 206 l 1
EndSplineSet
Validated: 1
EndChar

StartChar: five
Encoding: 53 53 48
Width: 540
Flags: W
LayerCount: 3
Fore
SplineSet
476 205 m 0
 476 72 367 -12 239 -12 c 0
 162 -12 104 8 58 35 c 1
 65 83 l 1
 118 51 168 30 241 30 c 0
 337 30 426 90 426 203 c 0
 426 301 364 361 252 361 c 0
 194 361 154 349 117 334 c 1
 90 341 l 1
 113 676 l 1
 441 676 l 1
 448 634 l 1
 154 634 l 1
 136 382 l 1
 168 394 205 403 254 403 c 0
 391 403 476 329 476 205 c 0
EndSplineSet
Validated: 1
EndChar

StartChar: six
Encoding: 54 54 49
Width: 572
Flags: W
LayerCount: 3
Fore
SplineSet
121 334 m 1
 183 378 245 402 313 402 c 0
 434 402 515 325 515 204 c 0
 515 72 424 -13 303 -13 c 0
 168 -13 70 102 70 274 c 0
 70 499 203 627 411 691 c 1
 418 645 l 1
 241 593 141 490 121 334 c 1
118 285 m 1
 118 285 118 280 118 277 c 0
 118 132 196 28 304 28 c 0
 403 28 465 98 465 202 c 0
 465 293 411 360 308 360 c 0
 238 360 175 328 118 285 c 1
EndSplineSet
Validated: 1
EndChar

StartChar: seven
Encoding: 55 55 50
Width: 535
Flags: W
LayerCount: 3
Fore
SplineSet
474 643 m 1
 187 -7 l 1
 142 4 l 1
 420 634 l 1
 61 634 l 1
 55 676 l 1
 474 676 l 1
 474 643 l 1
EndSplineSet
Validated: 1
EndChar

StartChar: eight
Encoding: 56 56 51
Width: 573
Flags: W
LayerCount: 3
Fore
SplineSet
316 369 m 1
 392 405 438 458 438 522 c 0
 438 593 378 648 291 648 c 0
 194 648 142 584 142 523 c 0
 142 452 179 412 316 369 c 1
261 343 m 1
 172 306 115 247 115 171 c 0
 115 85 187 28 290 28 c 0
 379 28 458 85 458 173 c 0
 458 251 414 293 261 343 c 1
216 359 m 1
 146 389 93 439 93 522 c 0
 93 615 177 689 293 689 c 0
 409 689 487 616 487 526 c 0
 487 446 432 392 361 353 c 1
 452 318 507 261 507 173 c 0
 507 64 410 -13 288 -13 c 0
 155 -13 66 66 66 168 c 0
 66 254 122 315 216 359 c 1
EndSplineSet
Validated: 1
EndChar

StartChar: nine
Encoding: 57 57 52
Width: 572
Flags: W
LayerCount: 3
Fore
SplineSet
450 331 m 1
 388 289 327 266 260 266 c 0
 141 266 58 344 58 471 c 0
 58 593 139 689 270 689 c 0
 408 689 502 574 502 402 c 0
 502 177 367 43 152 -15 c 1
 144 30 l 1
 326 72 428 178 450 331 c 1
455 381 m 1
 455 387 455 393 455 399 c 0
 455 548 376 648 270 648 c 0
 167 648 107 574 107 473 c 0
 107 377 163 308 265 308 c 0
 330 308 398 337 455 381 c 1
EndSplineSet
Validated: 1
EndChar

StartChar: colon
Encoding: 58 58 53
Width: 220
Flags: W
LayerCount: 3
Fore
SplineSet
140 390 m 1
 80 390 l 1
 80 470 l 1
 140 470 l 1
 140 390 l 1
140 0 m 1
 80 0 l 1
 80 81 l 1
 140 81 l 1
 140 0 l 1
EndSplineSet
Validated: 1
EndChar

StartChar: semicolon
Encoding: 59 59 54
Width: 220
Flags: W
LayerCount: 3
Fore
SplineSet
146 390 m 1
 86 390 l 1
 86 470 l 1
 146 470 l 1
 146 390 l 1
143 81 m 1
 54 -133 l 1
 29 -127 l 1
 82 81 l 1
 143 81 l 1
EndSplineSet
Validated: 1
EndChar

StartChar: less
Encoding: 60 60 55
Width: 568
Flags: W
LayerCount: 3
Fore
SplineSet
489 94 m 1
 58 319 l 1
 58 357 l 1
 489 582 l 1
 489 536 l 1
 107 339 l 1
 489 141 l 1
 489 94 l 1
EndSplineSet
Validated: 1
EndChar

StartChar: equal
Encoding: 61 61 56
Width: 615
Flags: W
LayerCount: 3
Fore
SplineSet
535 425 m 1
 80 425 l 1
 80 468 l 1
 535 468 l 1
 535 425 l 1
535 208 m 1
 80 208 l 1
 80 251 l 1
 535 251 l 1
 535 208 l 1
EndSplineSet
Validated: 1
EndChar

StartChar: greater
Encoding: 62 62 57
Width: 568
Flags: W
LayerCount: 3
Fore
SplineSet
510 319 m 1
 79 94 l 1
 79 140 l 1
 462 337 l 1
 79 535 l 1
 79 582 l 1
 510 357 l 1
 510 319 l 1
EndSplineSet
Validated: 1
EndChar

StartChar: question
Encoding: 63 63 58
Width: 482
Flags: W
LayerCount: 3
Fore
SplineSet
424 539 m 0
 424 438 357 385 249 324 c 1
 239 185 l 1
 207 178 l 1
 196 344 l 1
 213 353 l 2
 341 421 375 468 375 537 c 0
 375 613 320 660 233 660 c 0
 169 660 109 635 56 593 c 1
 49 639 l 1
 96 675 162 703 235 703 c 0
 344 703 424 641 424 539 c 0
253 0 m 1
 193 0 l 1
 193 81 l 1
 253 81 l 1
 253 0 l 1
EndSplineSet
Validated: 1
EndChar

StartChar: at
Encoding: 64 64 59
Width: 845
Flags: W
LayerCount: 3
Fore
SplineSet
499 198 m 1
 528 383 l 1
 506 393 486 399 460 399 c 0
 376 399 298 320 298 190 c 0
 298 126 325 92 362 92 c 0
 401 92 439 124 499 198 c 1
495 148 m 1
 445 88 405 55 355 55 c 0
 300 55 256 105 256 188 c 0
 256 334 352 436 463 436 c 0
 503 436 543 423 573 408 c 1
 541 201 l 2
 539 191 537 175 537 152 c 0
 537 114 557 81 609 81 c 0
 682 81 754 162 754 318 c 0
 754 492 654 598 468 598 c 0
 256 598 89 432 89 183 c 0
 89 -14 201 -115 382 -115 c 0
 461 -115 539 -98 596 -68 c 1
 600 -92 l 1
 546 -120 464 -140 378 -140 c 0
 177 -140 60 -25 60 182 c 0
 60 442 238 623 471 623 c 0
 671 623 782 505 782 319 c 0
 782 147 695 54 604 54 c 0
 538 54 499 92 495 148 c 1
EndSplineSet
Validated: 1
EndChar

StartChar: A
Encoding: 65 65 60
Width: 694
Flags: W
LayerCount: 3
Fore
SplineSet
647 4 m 1
 599 -7 l 1
 504 236 l 1
 188 236 l 1
 97 0 l 1
 47 0 l 1
 321 694 l 1
 373 694 l 1
 647 4 l 1
488 279 m 1
 346 640 l 1
 206 279 l 1
 488 279 l 1
EndSplineSet
Validated: 1
EndChar

StartChar: B
Encoding: 66 66 61
Width: 549
Flags: W
LayerCount: 3
Fore
SplineSet
490 196 m 0
 490 70 392 0 254 0 c 2
 100 0 l 1
 100 690 l 1
 254 690 l 2
 388 690 459 624 459 523 c 0
 459 447 413 392 349 366 c 1
 435 343 490 290 490 196 c 0
410 521 m 0
 410 600 355 647 252 647 c 2
 148 647 l 1
 148 382 l 1
 253 382 l 2
 357 382 410 446 410 521 c 0
441 191 m 0
 441 296 365 341 254 341 c 2
 148 341 l 1
 148 43 l 1
 258 43 l 2
 369 43 441 100 441 191 c 0
EndSplineSet
Validated: 1
EndChar

StartChar: C
Encoding: 67 67 62
Width: 650
Flags: W
LayerCount: 3
Fore
SplineSet
585 58 m 1
 533 18 459 -13 374 -13 c 0
 193 -13 65 131 65 344 c 0
 65 554 195 703 382 703 c 0
 456 703 522 679 574 643 c 1
 565 593 l 1
 508 634 448 660 381 660 c 0
 218 660 115 530 115 346 c 0
 115 161 219 30 378 30 c 0
 453 30 522 60 578 104 c 1
 585 58 l 1
EndSplineSet
Validated: 1
EndChar

StartChar: D
Encoding: 68 68 63
Width: 699
Flags: W
LayerCount: 3
Fore
SplineSet
634 346 m 0
 634 129 486 0 275 0 c 2
 100 0 l 1
 100 690 l 1
 278 690 l 2
 499 690 634 553 634 346 c 0
584 345 m 0
 584 541 460 647 277 647 c 2
 148 647 l 1
 148 43 l 1
 280 43 l 2
 462 43 584 146 584 345 c 0
EndSplineSet
Validated: 1
EndChar

StartChar: E
Encoding: 69 69 64
Width: 505
Flags: W
LayerCount: 3
Fore
SplineSet
459 0 m 1
 100 0 l 1
 100 690 l 1
 449 690 l 1
 449 647 l 1
 148 647 l 1
 148 383 l 1
 390 383 l 1
 396 340 l 1
 148 340 l 1
 148 43 l 1
 459 43 l 1
 459 0 l 1
EndSplineSet
Validated: 1
EndChar

StartChar: F
Encoding: 70 70 65
Width: 477
Flags: W
LayerCount: 3
Fore
SplineSet
435 647 m 1
 148 647 l 1
 148 372 l 1
 381 372 l 1
 388 329 l 1
 148 329 l 1
 148 0 l 1
 100 0 l 1
 100 690 l 1
 435 690 l 1
 435 647 l 1
EndSplineSet
Validated: 1
EndChar

StartChar: G
Encoding: 71 71 66
Width: 691
Flags: W
LayerCount: 3
Fore
SplineSet
602 59 m 1
 535 14 467 -13 380 -13 c 0
 189 -13 65 134 65 344 c 0
 65 554 194 703 375 703 c 0
 455 703 522 681 575 643 c 1
 566 591 l 1
 514 633 452 660 374 660 c 0
 218 660 115 533 115 345 c 0
 115 158 217 30 382 30 c 0
 451 30 504 48 554 81 c 1
 554 307 l 1
 382 307 l 1
 375 350 l 1
 602 350 l 1
 602 59 l 1
EndSplineSet
Validated: 1
EndChar

StartChar: H
Encoding: 72 72 67
Width: 707
Flags: W
LayerCount: 3
Fore
SplineSet
607 0 m 1
 559 0 l 1
 559 340 l 1
 148 340 l 1
 148 0 l 1
 100 0 l 1
 100 690 l 1
 148 690 l 1
 148 383 l 1
 559 383 l 1
 559 690 l 1
 607 690 l 1
 607 0 l 1
EndSplineSet
Validated: 1
EndChar

StartChar: I
Encoding: 73 73 68
Width: 264
Flags: W
LayerCount: 3
Fore
SplineSet
156 0 m 1
 108 0 l 1
 108 690 l 1
 156 690 l 1
 156 0 l 1
EndSplineSet
Validated: 1
EndChar

StartChar: J
Encoding: 74 74 69
Width: 359
Flags: W
LayerCount: 3
Fore
SplineSet
262 166 m 2
 262 50 194 -6 98 -6 c 0
 76 -6 54 -3 38 1 c 1
 31 47 l 1
 51 41 76 37 99 37 c 0
 171 37 214 79 214 161 c 2
 214 690 l 1
 262 690 l 1
 262 166 l 2
EndSplineSet
Validated: 1
EndChar

StartChar: K
Encoding: 75 75 70
Width: 603
Flags: W
LayerCount: 3
Fore
SplineSet
580 5 m 1
 526 -7 l 1
 148 361 l 1
 148 0 l 1
 100 0 l 1
 100 690 l 1
 148 690 l 1
 148 372 l 1
 496 690 l 1
 560 690 l 1
 204 369 l 1
 580 5 l 1
EndSplineSet
Validated: 1
EndChar

StartChar: L
Encoding: 76 76 71
Width: 465
Flags: W
LayerCount: 3
Fore
SplineSet
435 0 m 1
 100 0 l 1
 100 690 l 1
 148 690 l 1
 148 43 l 1
 428 43 l 1
 435 0 l 1
EndSplineSet
Validated: 1
EndChar

StartChar: M
Encoding: 77 77 72
Width: 913
Flags: W
LayerCount: 3
Fore
SplineSet
828 0 m 1
 780 0 l 1
 733 621 l 1
 476 -4 l 1
 436 -4 l 1
 179 621 l 1
 132 0 l 1
 86 0 l 1
 142 690 l 1
 201 690 l 1
 457 59 l 1
 714 690 l 1
 772 690 l 1
 828 0 l 1
EndSplineSet
Validated: 1
EndChar

StartChar: N
Encoding: 78 78 73
Width: 707
Flags: W
LayerCount: 3
Fore
SplineSet
607 0 m 1
 569 0 l 1
 146 617 l 1
 146 0 l 1
 100 0 l 1
 100 690 l 1
 149 690 l 1
 561 90 l 1
 561 690 l 1
 607 690 l 1
 607 0 l 1
EndSplineSet
Validated: 1
EndChar

StartChar: O
Encoding: 79 79 74
Width: 744
Flags: W
LayerCount: 3
Fore
SplineSet
679 346 m 0
 679 136 548 -13 371 -13 c 0
 194 -13 65 135 65 344 c 0
 65 554 196 703 373 703 c 0
 550 703 679 555 679 346 c 0
629 344 m 0
 629 530 524 660 371 660 c 0
 219 660 115 530 115 346 c 0
 115 160 220 30 373 30 c 0
 525 30 629 160 629 344 c 0
EndSplineSet
Validated: 1
EndChar

StartChar: P
Encoding: 80 80 75
Width: 530
Flags: W
LayerCount: 3
Fore
SplineSet
480 500 m 0
 480 369 378 300 244 300 c 2
 148 300 l 1
 148 0 l 1
 100 0 l 1
 100 690 l 1
 260 690 l 2
 393 690 480 621 480 500 c 0
430 498 m 0
 430 596 369 647 256 647 c 2
 148 647 l 1
 148 343 l 1
 246 343 l 2
 360 343 430 395 430 498 c 0
EndSplineSet
Validated: 1
EndChar

StartChar: Q
Encoding: 81 81 76
Width: 747
Flags: W
LayerCount: 3
Fore
SplineSet
679 346 m 0
 679 156 575 17 420 -7 c 1
 652 -97 l 1
 644 -146 l 1
 289 -4 l 2
 155 50 65 151 65 344 c 0
 65 554 196 703 373 703 c 0
 550 703 679 555 679 346 c 0
629 343 m 0
 629 531 524 660 371 660 c 0
 218 660 115 533 115 345 c 0
 115 157 220 28 373 28 c 0
 526 28 629 156 629 343 c 0
EndSplineSet
Validated: 1
EndChar

StartChar: R
Encoding: 82 82 77
Width: 564
Flags: W
LayerCount: 3
Fore
SplineSet
430 506 m 0
 430 597 370 647 263 647 c 2
 148 647 l 1
 148 359 l 1
 250 359 l 2
 360 359 430 410 430 506 c 0
304 322 m 1
 304 323 536 4 536 4 c 1
 486 -7 l 1
 251 317 l 1
 148 317 l 1
 148 0 l 1
 100 0 l 1
 100 690 l 1
 266 690 l 2
 395 690 480 623 480 508 c 0
 480 400 402 339 304 322 c 1
EndSplineSet
Validated: 37
EndChar

StartChar: S
Encoding: 83 83 78
Width: 512
Flags: W
LayerCount: 3
Fore
SplineSet
454 178 m 0
 454 61 357 -8 243 -8 c 0
 163 -8 105 11 67 33 c 1
 74 82 l 1
 113 58 175 35 246 35 c 0
 334 35 404 89 404 175 c 0
 404 247 364 288 259 333 c 0
 125 390 78 436 78 532 c 0
 78 630 161 698 266 698 c 0
 330 698 381 684 415 664 c 1
 408 616 l 1
 368 639 323 655 264 655 c 0
 181 655 127 602 127 534 c 0
 127 462 166 428 274 382 c 0
 397 330 454 277 454 178 c 0
EndSplineSet
Validated: 1
EndChar

StartChar: T
Encoding: 84 84 79
Width: 566
Flags: W
LayerCount: 3
Fore
SplineSet
536 647 m 1
 311 647 l 1
 311 0 l 1
 263 0 l 1
 263 647 l 1
 37 647 l 1
 37 690 l 1
 530 690 l 1
 536 647 l 1
EndSplineSet
Validated: 1
EndChar

StartChar: U
Encoding: 85 85 80
Width: 674
Flags: W
LayerCount: 3
Fore
SplineSet
589 260 m 2
 589 99 494 -10 335 -10 c 0
 177 -10 85 101 85 255 c 2
 85 690 l 1
 133 690 l 1
 133 262 l 2
 133 127 204 33 337 33 c 0
 468 33 541 122 541 257 c 2
 541 690 l 1
 589 690 l 1
 589 260 l 2
EndSplineSet
Validated: 1
EndChar

StartChar: V
Encoding: 86 86 81
Width: 683
Flags: W
LayerCount: 3
Fore
SplineSet
636 690 m 1
 362 -4 l 1
 318 -4 l 1
 47 686 l 1
 94 697 l 1
 341 54 l 1
 586 690 l 1
 636 690 l 1
EndSplineSet
Validated: 1
EndChar

StartChar: W
Encoding: 87 87 82
Width: 1033
Flags: W
LayerCount: 3
Fore
SplineSet
979 690 m 1
 770 -2 l 1
 726 -2 l 1
 515 624 l 1
 307 -2 l 1
 264 -2 l 1
 55 686 l 1
 103 697 l 1
 289 71 l 1
 491 690 l 1
 542 690 l 1
 748 71 l 1
 931 690 l 1
 979 690 l 1
EndSplineSet
Validated: 1
EndChar

StartChar: X
Encoding: 88 88 83
Width: 635
Flags: W
LayerCount: 3
Fore
SplineSet
290 361 m 1
 67 684 l 1
 112 694 l 1
 317 395 l 1
 515 690 l 1
 567 690 l 1
 343 360 l 1
 587 5 l 1
 542 -5 l 1
 317 327 l 1
 97 0 l 1
 45 0 l 1
 290 361 l 1
EndSplineSet
Validated: 1
EndChar

StartChar: Y
Encoding: 89 89 84
Width: 621
Flags: W
LayerCount: 3
Fore
SplineSet
580 690 m 1
 334 297 l 1
 334 0 l 1
 286 0 l 1
 286 296 l 1
 41 687 l 1
 89 697 l 1
 311 336 l 1
 528 690 l 1
 580 690 l 1
EndSplineSet
Validated: 1
EndChar

StartChar: Z
Encoding: 90 90 85
Width: 610
Flags: W
LayerCount: 3
Fore
SplineSet
549 0 m 1
 65 0 l 1
 65 32 l 1
 485 649 l 1
 93 649 l 1
 87 690 l 1
 544 690 l 1
 544 658 l 1
 124 41 l 1
 543 41 l 1
 549 0 l 1
EndSplineSet
Validated: 1
EndChar

StartChar: bracketleft
Encoding: 91 91 86
Width: 405
Flags: W
LayerCount: 3
Fore
SplineSet
342 -106 m 1
 105 -106 l 1
 105 690 l 1
 338 690 l 1
 338 651 l 1
 151 651 l 1
 151 -67 l 1
 336 -67 l 1
 342 -106 l 1
EndSplineSet
Validated: 1
EndChar

StartChar: backslash
Encoding: 92 92 87
Width: 501
Flags: W
LayerCount: 3
Fore
SplineSet
535 -113 m 1
 493 -122 l 1
 21 686 l 1
 63 695 l 1
 535 -113 l 1
EndSplineSet
Validated: 1
EndChar

StartChar: bracketright
Encoding: 93 93 88
Width: 405
Flags: W
LayerCount: 3
Fore
SplineSet
300 -106 m 1
 68 -106 l 1
 68 -67 l 1
 254 -67 l 1
 254 651 l 1
 70 651 l 1
 63 690 l 1
 300 690 l 1
 300 -106 l 1
EndSplineSet
Validated: 1
EndChar

StartChar: asciicircum
Encoding: 94 94 89
Width: 457
Flags: W
LayerCount: 3
Fore
SplineSet
354 555 m 1
 328 550 l 1
 228 643 l 1
 131 552 l 1
 99 552 l 1
 208 701 l 1
 251 701 l 1
 354 555 l 1
EndSplineSet
Validated: 1
EndChar

StartChar: underscore
Encoding: 95 95 90
Width: 476
Flags: W
LayerCount: 3
Fore
SplineSet
473 -106 m 1
 3 -106 l 1
 3 -65 l 1
 473 -65 l 1
 473 -106 l 1
EndSplineSet
Validated: 1
EndChar

StartChar: quoteleft
Encoding: 258 8216 91
Width: 212
Flags: W
LayerCount: 3
Fore
SplineSet
158 688 m 1
 119 480 l 1
 58 480 l 1
 132 694 l 1
 158 688 l 1
EndSplineSet
Validated: 1
EndChar

StartChar: braceleft
Encoding: 123 123 92
Width: 463
Flags: W
LayerCount: 3
Fore
SplineSet
400 -106 m 1
 320 -106 l 2
 222 -106 177 -61 177 24 c 0
 177 70 189 114 189 163 c 0
 189 246 141 273 77 273 c 2
 52 273 l 1
 47 310 l 1
 77 310 l 2
 142 310 189 336 189 420 c 0
 189 468 177 511 177 558 c 0
 177 643 222 690 320 690 c 2
 395 690 l 1
 395 651 l 1
 318 651 l 2
 251 651 222 616 222 559 c 0
 222 518 235 465 235 421 c 0
 235 339 194 306 134 293 c 1
 134 291 l 1
 194 276 235 245 235 162 c 0
 235 118 222 64 222 23 c 0
 222 -34 248 -67 317 -67 c 2
 393 -67 l 1
 400 -106 l 1
EndSplineSet
Validated: 1
EndChar

StartChar: bar
Encoding: 124 124 93
Width: 268
Flags: W
LayerCount: 3
Fore
SplineSet
155 -184 m 1
 113 -191 l 1
 113 716 l 1
 155 723 l 1
 155 -184 l 1
EndSplineSet
Validated: 1
EndChar

StartChar: braceright
Encoding: 125 125 94
Width: 463
Flags: W
LayerCount: 3
Fore
SplineSet
416 274 m 1
 386 274 l 2
 321 274 274 248 274 164 c 0
 274 115 286 72 286 26 c 0
 286 -59 241 -106 143 -106 c 2
 68 -106 l 1
 68 -67 l 1
 145 -67 l 2
 212 -67 241 -32 241 25 c 0
 241 66 228 119 228 163 c 0
 228 245 269 278 329 291 c 1
 329 293 l 1
 269 307 228 339 228 422 c 0
 228 466 241 520 241 561 c 0
 241 618 215 651 146 651 c 2
 70 651 l 1
 63 690 l 1
 143 690 l 2
 241 690 286 645 286 560 c 0
 286 514 274 469 274 421 c 0
 274 338 322 311 386 311 c 2
 411 311 l 1
 416 274 l 1
EndSplineSet
Validated: 1
EndChar

StartChar: asciitilde
Encoding: 126 126 95
Width: 408
Flags: W
LayerCount: 3
Fore
SplineSet
347 321 m 1
 336 261 310 228 276 228 c 0
 248 228 232 236 197 255 c 0
 165 273 150 281 134 281 c 0
 117 281 104 264 95 227 c 1
 61 234 l 1
 72 295 98 328 132 328 c 0
 160 328 176 319 211 300 c 0
 243 283 258 274 274 274 c 0
 291 274 304 292 313 328 c 1
 347 321 l 1
EndSplineSet
Validated: 1
EndChar

StartChar: exclamdown
Encoding: 161 161 96
Width: 264
Flags: W
LayerCount: 3
Fore
SplineSet
162 609 m 1
 102 609 l 1
 102 690 l 1
 162 690 l 1
 162 609 l 1
161 0 m 1
 103 0 l 1
 119 505 l 1
 145 511 l 1
 161 0 l 1
EndSplineSet
Validated: 1
EndChar

StartChar: cent
Encoding: 162 162 97
Width: 495
Flags: W
LayerCount: 3
Fore
SplineSet
248 98 m 0
 248 99 230 -10 230 -10 c 1
 196 -2 l 1
 214 106 l 1
 130 132 64 213 64 336 c 0
 64 480 160 577 284 577 c 0
 285 577 286 577 287 577 c 2
 304 685 l 1
 339 677 l 1
 322 574 l 1
 362 567 399 552 428 530 c 1
 419 489 l 1
 385 514 352 531 317 537 c 1
 253 135 l 1
 261 134 268 134 276 134 c 0
 326 134 376 153 425 188 c 1
 431 149 l 1
 388 119 333 97 272 97 c 0
 264 97 256 97 248 98 c 0
219 144 m 1
 281 540 l 1
 173 538 108 457 108 336 c 0
 108 242 151 169 219 144 c 1
EndSplineSet
Validated: 33
EndChar

StartChar: sterling
Encoding: 163 163 98
Width: 550
Flags: W
LayerCount: 3
Fore
SplineSet
173 353 m 1
 222 514 l 2
 257 628 313 689 417 689 c 0
 446 689 467 685 492 679 c 1
 485 637 l 1
 462 643 441 646 412 646 c 0
 332 646 294 599 265 503 c 2
 219 353 l 1
 411 353 l 1
 417 311 l 1
 206 311 l 1
 124 41 l 1
 489 41 l 1
 495 0 l 1
 74 0 l 1
 74 29 l 1
 160 311 l 1
 74 311 l 1
 74 353 l 1
 173 353 l 1
EndSplineSet
Validated: 1
EndChar

StartChar: fraction
Encoding: 259 8260 99
Width: 429
Flags: W
LayerCount: 3
Fore
SplineSet
507 774 m 1
 -35 -108 l 1
 -74 -98 l 1
 468 784 l 1
 507 774 l 1
EndSplineSet
Validated: 1
EndChar

StartChar: yen
Encoding: 165 165 100
Width: 620
Flags: W
LayerCount: 3
Fore
SplineSet
332 256 m 1
 332 152 l 1
 499 152 l 1
 499 114 l 1
 332 114 l 1
 332 0 l 1
 289 0 l 1
 289 114 l 1
 123 114 l 1
 116 152 l 1
 289 152 l 1
 289 256 l 1
 119 256 l 1
 119 294 l 1
 284 294 l 1
 59 670 l 1
 103 683 l 1
 312 324 l 1
 515 676 l 1
 565 676 l 1
 336 294 l 1
 495 294 l 1
 502 256 l 1
 332 256 l 1
EndSplineSet
Validated: 1
EndChar

StartChar: florin
Encoding: 260 402 101
Width: 381
Flags: W
LayerCount: 3
Fore
SplineSet
155 453 m 1
 172 558 l 2
 186 646 229 684 309 684 c 0
 324 684 340 681 351 680 c 1
 351 636 l 1
 337 639 322 641 307 641 c 0
 249 641 227 613 217 554 c 2
 201 453 l 1
 308 453 l 1
 308 412 l 1
 194 412 l 1
 128 0 l 1
 83 0 l 1
 149 412 l 1
 80 412 l 1
 86 453 l 1
 155 453 l 1
EndSplineSet
Validated: 1
EndChar

StartChar: section
Encoding: 167 167 102
Width: 575
Flags: W
LayerCount: 3
Fore
SplineSet
508 350 m 0
 508 312 491 283 472 262 c 1
 431 271 l 1
 449 291 463 317 463 347 c 0
 463 387 433 409 361 430 c 2
 267 457 l 2
 170 485 131 511 131 571 c 0
 131 637 198 684 289 684 c 0
 345 684 385 676 436 656 c 1
 428 611 l 1
 383 632 336 643 285 643 c 0
 215 643 178 613 178 573 c 0
 178 537 201 521 282 497 c 2
 378 469 l 2
 456 446 508 414 508 350 c 0
67 326 m 0
 67 364 84 393 103 414 c 1
 144 405 l 1
 126 385 112 359 112 329 c 0
 112 289 142 267 214 246 c 2
 308 219 l 2
 405 191 444 165 444 105 c 0
 444 39 377 -8 286 -8 c 0
 230 -8 190 0 139 20 c 1
 147 65 l 1
 192 44 239 33 290 33 c 0
 360 33 397 63 397 103 c 0
 397 139 374 155 293 179 c 2
 197 207 l 2
 119 230 67 262 67 326 c 0
EndSplineSet
Validated: 1
EndChar

StartChar: currency
Encoding: 164 164 103
Width: 612
Flags: W
LayerCount: 3
Fore
SplineSet
128 414 m 0
 129 414 37 414 37 414 c 1
 37 454 l 1
 136 454 l 1
 170 601 269 689 394 689 c 0
 460 689 511 670 559 638 c 1
 551 591 l 1
 502 626 458 648 393 648 c 0
 287 648 212 572 183 454 c 1
 184 454 452 454 452 454 c 1
 459 414 l 1
 176 414 l 1
 172 390 170 365 170 338 c 0
 170 320 171 303 173 286 c 1
 456 286 l 1
 456 246 l 1
 178 246 l 1
 202 111 280 27 389 27 c 0
 457 27 507 50 564 90 c 1
 569 47 l 1
 519 12 460 -13 386 -13 c 0
 257 -13 157 85 130 246 c 1
 40 246 l 1
 34 286 l 1
 125 286 l 1
 124 302 123 320 123 337 c 0
 123 364 125 390 128 414 c 0
EndSplineSet
Validated: 37
EndChar

StartChar: quotesingle
Encoding: 39 39 104
Width: 212
Flags: W
LayerCount: 3
Fore
SplineSet
137 676 m 1
 119 492 l 1
 93 497 l 1
 75 676 l 1
 137 676 l 1
EndSplineSet
Validated: 1
EndChar

StartChar: quotedblleft
Encoding: 261 8220 105
Width: 370
Flags: W
LayerCount: 3
Fore
SplineSet
158 688 m 1
 119 480 l 1
 58 480 l 1
 132 694 l 1
 158 688 l 1
316 688 m 1
 277 480 l 1
 216 480 l 1
 290 694 l 1
 316 688 l 1
EndSplineSet
Validated: 1
EndChar

StartChar: guillemotleft
Encoding: 171 171 106
Width: 503
Flags: W
LayerCount: 3
Fore
SplineSet
443 470 m 1
 301 236 l 1
 441 4 l 1
 410 -5 l 1
 242 236 l 1
 408 470 l 1
 443 470 l 1
243 470 m 1
 102 236 l 1
 242 4 l 1
 210 -5 l 1
 43 236 l 1
 209 470 l 1
 243 470 l 1
EndSplineSet
Validated: 1
EndChar

StartChar: guilsinglleft
Encoding: 262 8249 107
Width: 304
Flags: W
LayerCount: 3
Fore
SplineSet
243 470 m 1
 102 236 l 1
 242 4 l 1
 210 -5 l 1
 43 236 l 1
 209 470 l 1
 243 470 l 1
EndSplineSet
Validated: 1
EndChar

StartChar: guilsinglright
Encoding: 263 8250 108
Width: 304
Flags: W
LayerCount: 3
Fore
SplineSet
261 234 m 1
 95 0 l 1
 60 0 l 1
 202 234 l 1
 62 467 l 1
 93 475 l 1
 261 234 l 1
EndSplineSet
Validated: 1
EndChar

StartChar: fi
Encoding: 264 64257 109
Width: 514
Flags: W
LayerCount: 3
Fore
SplineSet
441 638 m 0
 441 617 424 597 401 597 c 0
 380 597 361 617 361 638 c 0
 361 660 380 678 401 678 c 0
 424 678 441 660 441 638 c 0
269 670 m 1
 260 672 252 673 233 673 c 0
 185 673 156 649 156 591 c 2
 156 470 l 1
 255 470 l 1
 262 430 l 1
 156 430 l 1
 156 0 l 1
 110 0 l 1
 110 430 l 1
 37 430 l 1
 37 470 l 1
 110 470 l 1
 110 593 l 2
 110 674 153 716 231 716 c 0
 246 716 253 716 262 715 c 1
 269 670 l 1
425 0 m 1
 378 0 l 1
 378 470 l 1
 425 470 l 1
 425 0 l 1
EndSplineSet
Validated: 1
EndChar

StartChar: fl
Encoding: 265 64258 110
Width: 514
Flags: W
LayerCount: 3
Fore
SplineSet
425 0 m 1
 378 0 l 1
 378 705 l 1
 425 715 l 1
 425 0 l 1
269 670 m 1
 260 672 252 673 233 673 c 0
 185 673 156 649 156 591 c 2
 156 470 l 1
 255 470 l 1
 262 430 l 1
 156 430 l 1
 156 0 l 1
 110 0 l 1
 110 430 l 1
 37 430 l 1
 37 470 l 1
 110 470 l 1
 110 593 l 2
 110 674 153 716 231 716 c 0
 246 716 253 716 262 715 c 1
 269 670 l 1
EndSplineSet
Validated: 1
EndChar

StartChar: endash
Encoding: 266 8211 111
Width: 457
Flags: W
LayerCount: 3
Fore
SplineSet
395 259 m 1
 62 259 l 1
 62 306 l 1
 395 306 l 1
 395 259 l 1
EndSplineSet
Validated: 1
EndChar

StartChar: dagger
Encoding: 267 8224 112
Width: 498
Flags: W
LayerCount: 3
Fore
SplineSet
269 577 m 1
 255 480 l 1
 242 480 l 1
 229 577 l 1
 229 690 l 1
 269 690 l 1
 269 577 l 1
442 427 m 1
 384 427 l 1
 283 442 l 1
 283 453 l 1
 384 468 l 1
 442 468 l 1
 442 427 l 1
215 442 m 1
 113 427 l 1
 56 427 l 1
 56 468 l 1
 113 468 l 1
 215 453 l 1
 215 442 l 1
268 -15 m 1
 253 -117 l 1
 244 -117 l 1
 230 -15 l 1
 230 326 l 1
 242 415 l 1
 255 415 l 1
 268 326 l 1
 268 -15 l 1
EndSplineSet
Validated: 1
EndChar

StartChar: daggerdbl
Encoding: 268 8225 113
Width: 516
Flags: W
LayerCount: 3
Fore
SplineSet
278 577 m 1
 264 480 l 1
 252 480 l 1
 238 577 l 1
 238 690 l 1
 278 690 l 1
 278 577 l 1
451 427 m 1
 393 427 l 1
 292 442 l 1
 292 453 l 1
 393 468 l 1
 451 468 l 1
 451 427 l 1
224 442 m 1
 123 427 l 1
 65 427 l 1
 65 468 l 1
 123 468 l 1
 224 453 l 1
 224 442 l 1
277 178 m 1
 264 88 l 1
 252 88 l 1
 239 178 l 1
 239 326 l 1
 252 415 l 1
 264 415 l 1
 277 326 l 1
 277 178 l 1
451 35 m 1
 393 35 l 1
 292 50 l 1
 292 61 l 1
 393 76 l 1
 451 76 l 1
 451 35 l 1
224 50 m 1
 123 35 l 1
 65 35 l 1
 65 76 l 1
 123 76 l 1
 224 61 l 1
 224 50 l 1
278 -187 m 1
 238 -187 l 1
 238 -74 l 1
 252 23 l 1
 264 23 l 1
 278 -74 l 1
 278 -187 l 1
EndSplineSet
Validated: 1
EndChar

StartChar: periodcentered
Encoding: 183 183 114
Width: 203
Flags: W
LayerCount: 3
Fore
SplineSet
132 242 m 1
 71 242 l 1
 71 323 l 1
 132 323 l 1
 132 242 l 1
EndSplineSet
Validated: 1
EndChar

StartChar: paragraph
Encoding: 182 182 115
Width: 520
Flags: W
LayerCount: 3
Fore
SplineSet
412 0 m 1
 368 0 l 1
 368 639 l 1
 276 639 l 1
 276 497 l 1
 249 327 l 1
 127 332 49 390 49 505 c 0
 49 614 126 676 251 676 c 2
 412 676 l 1
 412 0 l 1
EndSplineSet
Validated: 1
EndChar

StartChar: bullet
Encoding: 269 8226 116
Width: 413
Flags: W
LayerCount: 3
Fore
SplineSet
310 350 m 1
 296 253 l 1
 207 236 l 1
 118 253 l 1
 103 350 l 1
 118 447 l 1
 207 463 l 1
 296 447 l 1
 310 350 l 1
EndSplineSet
Validated: 1
EndChar

StartChar: quotesinglbase
Encoding: 270 8218 117
Width: 212
Flags: W
LayerCount: 3
Fore
SplineSet
147 81 m 1
 73 -133 l 1
 47 -127 l 1
 86 81 l 1
 147 81 l 1
EndSplineSet
Validated: 1
EndChar

StartChar: quotedblbase
Encoding: 271 8222 118
Width: 369
Flags: W
LayerCount: 3
Fore
SplineSet
154 81 m 1
 80 -133 l 1
 54 -127 l 1
 93 81 l 1
 154 81 l 1
312 81 m 1
 238 -133 l 1
 212 -127 l 1
 251 81 l 1
 312 81 l 1
EndSplineSet
Validated: 1
EndChar

StartChar: quotedblright
Encoding: 272 8221 119
Width: 370
Flags: W
LayerCount: 3
Fore
SplineSet
154 690 m 1
 80 476 l 1
 54 482 l 1
 93 690 l 1
 154 690 l 1
312 690 m 1
 238 476 l 1
 212 482 l 1
 251 690 l 1
 312 690 l 1
EndSplineSet
Validated: 1
EndChar

StartChar: guillemotright
Encoding: 187 187 120
Width: 503
Flags: W
LayerCount: 3
Fore
SplineSet
460 234 m 1
 295 0 l 1
 260 0 l 1
 402 234 l 1
 262 467 l 1
 293 475 l 1
 460 234 l 1
261 234 m 1
 95 0 l 1
 60 0 l 1
 202 234 l 1
 62 467 l 1
 93 475 l 1
 261 234 l 1
EndSplineSet
Validated: 1
EndChar

StartChar: ellipsis
Encoding: 273 8230 121
Width: 666
Flags: W
LayerCount: 3
Fore
SplineSet
586 0 m 1
 525 0 l 1
 525 81 l 1
 586 81 l 1
 586 0 l 1
363 0 m 1
 303 0 l 1
 303 81 l 1
 363 81 l 1
 363 0 l 1
141 0 m 1
 81 0 l 1
 81 81 l 1
 141 81 l 1
 141 0 l 1
EndSplineSet
Validated: 1
EndChar

StartChar: perthousand
Encoding: 274 8240 122
Width: 811
Flags: W
LayerCount: 3
Fore
SplineSet
749 345 m 0
 749 137 615 -13 406 -13 c 0
 198 -13 61 137 61 345 c 0
 61 553 196 703 404 703 c 0
 613 703 749 553 749 345 c 0
722 345 m 0
 722 540 598 679 404 679 c 0
 209 679 89 540 89 345 c 0
 89 150 212 11 407 11 c 0
 602 11 722 150 722 345 c 0
434 327 m 1
 562 159 l 1
 518 151 l 1
 392 322 l 1
 336 322 l 1
 336 154 l 1
 296 154 l 1
 296 547 l 1
 400 547 l 2
 476 547 525 504 525 437 c 0
 525 378 486 341 434 327 c 1
399 509 m 2
 336 509 l 1
 336 359 l 1
 392 359 l 2
 447 359 483 387 483 436 c 0
 483 482 453 509 399 509 c 2
EndSplineSet
Validated: 1
EndChar

StartChar: questiondown
Encoding: 191 191 123
Width: 482
Flags: W
LayerCount: 3
Fore
SplineSet
289 609 m 1
 229 609 l 1
 229 690 l 1
 289 690 l 1
 289 609 l 1
433 51 m 1
 386 15 320 -13 247 -13 c 0
 138 -13 58 49 58 151 c 0
 58 252 125 305 233 366 c 1
 243 505 l 1
 275 512 l 1
 286 346 l 1
 269 337 l 2
 141 269 107 222 107 153 c 0
 107 77 162 30 249 30 c 0
 313 30 373 55 426 97 c 1
 433 51 l 1
EndSplineSet
Validated: 1
EndChar

StartChar: grave
Encoding: 96 96 124
Width: 457
Flags: W
LayerCount: 3
Fore
SplineSet
308 552 m 1
 273 552 l 1
 135 692 l 1
 204 707 l 1
 308 552 l 1
EndSplineSet
Validated: 1
EndChar

StartChar: acute
Encoding: 180 180 125
Width: 457
Flags: W
LayerCount: 3
Fore
SplineSet
323 692 m 1
 185 552 l 1
 149 552 l 1
 255 707 l 1
 323 692 l 1
EndSplineSet
Validated: 1
EndChar

StartChar: circumflex
Encoding: 275 710 126
Width: 457
Flags: W
LayerCount: 3
Fore
SplineSet
354 555 m 1
 328 550 l 1
 228 645 l 1
 131 552 l 1
 99 552 l 1
 208 701 l 1
 251 701 l 1
 354 555 l 1
EndSplineSet
Validated: 1
EndChar

StartChar: tilde
Encoding: 276 732 127
Width: 457
Flags: W
LayerCount: 3
Fore
SplineSet
371 655 m 1
 361 595 333 560 299 560 c 0
 271 560 257 568 221 587 c 0
 189 604 176 614 159 614 c 0
 143 614 129 596 120 559 c 1
 86 566 l 1
 97 627 124 662 158 662 c 0
 187 662 200 653 236 634 c 0
 268 617 282 608 298 608 c 0
 315 608 328 626 338 662 c 1
 371 655 l 1
EndSplineSet
Validated: 1
EndChar

StartChar: macron
Encoding: 175 175 128
Width: 457
Flags: W
LayerCount: 3
Fore
SplineSet
352 581 m 1
 105 581 l 1
 105 632 l 1
 352 632 l 1
 352 581 l 1
EndSplineSet
Validated: 1
EndChar

StartChar: breve
Encoding: 277 728 129
Width: 457
Flags: W
LayerCount: 3
Fore
SplineSet
351 696 m 1
 347 603 304 554 229 554 c 0
 159 554 113 605 108 690 c 1
 145 698 l 1
 153 639 178 607 231 607 c 0
 279 607 308 638 314 696 c 1
 351 696 l 1
EndSplineSet
Validated: 1
EndChar

StartChar: dotaccent
Encoding: 278 729 130
Width: 457
Flags: W
LayerCount: 3
Fore
SplineSet
264 556 m 1
 193 556 l 1
 193 637 l 1
 264 637 l 1
 264 556 l 1
EndSplineSet
Validated: 1
EndChar

StartChar: dieresis
Encoding: 168 168 131
Width: 457
Flags: W
LayerCount: 3
Fore
SplineSet
347 561 m 1
 277 561 l 1
 277 640 l 1
 347 640 l 1
 347 561 l 1
180 561 m 1
 111 561 l 1
 111 640 l 1
 180 640 l 1
 180 561 l 1
EndSplineSet
Validated: 1
EndChar

StartChar: ring
Encoding: 279 730 132
Width: 457
Flags: W
LayerCount: 3
Fore
SplineSet
322 642 m 0
 322 589 282 550 229 550 c 0
 176 550 135 589 135 642 c 0
 135 694 176 736 229 736 c 0
 282 736 322 694 322 642 c 0
288 642 m 0
 288 678 263 705 229 705 c 0
 195 705 169 678 169 642 c 0
 169 606 195 580 229 580 c 0
 263 580 288 606 288 642 c 0
EndSplineSet
Validated: 1
EndChar

StartChar: cedilla
Encoding: 184 184 133
Width: 457
Flags: W
LayerCount: 3
Fore
SplineSet
287 -67 m 1
 166 -186 l 1
 132 -186 l 1
 222 -51 l 1
 287 -67 l 1
EndSplineSet
Validated: 1
EndChar

StartChar: hungarumlaut
Encoding: 280 733 134
Width: 457
Flags: W
LayerCount: 3
Fore
SplineSet
394 696 m 1
 256 556 l 1
 223 556 l 1
 328 713 l 1
 394 696 l 1
231 696 m 1
 92 556 l 1
 59 556 l 1
 165 713 l 1
 231 696 l 1
EndSplineSet
Validated: 1
EndChar

StartChar: ogonek
Encoding: 281 731 135
Width: 457
Flags: W
LayerCount: 3
Fore
SplineSet
326 -186 m 1
 292 -186 l 1
 170 -67 l 1
 237 -51 l 1
 326 -186 l 1
EndSplineSet
Validated: 1
EndChar

StartChar: caron
Encoding: 282 711 136
Width: 457
Flags: W
LayerCount: 3
Fore
SplineSet
359 701 m 1
 250 552 l 1
 207 552 l 1
 103 697 l 1
 129 703 l 1
 230 607 l 1
 327 701 l 1
 359 701 l 1
EndSplineSet
Validated: 1
EndChar

StartChar: emdash
Encoding: 283 8212 137
Width: 915
Flags: W
LayerCount: 3
Fore
SplineSet
853 259 m 1
 62 259 l 1
 62 306 l 1
 853 306 l 1
 853 259 l 1
EndSplineSet
Validated: 1
EndChar

StartChar: AE
Encoding: 198 198 138
Width: 860
Flags: W
LayerCount: 3
Fore
SplineSet
814 0 m 1
 457 0 l 1
 457 236 l 1
 208 236 l 1
 69 0 l 1
 17 0 l 1
 426 690 l 1
 804 690 l 1
 804 647 l 1
 504 647 l 1
 504 383 l 1
 745 383 l 1
 751 340 l 1
 504 340 l 1
 504 43 l 1
 814 43 l 1
 814 0 l 1
457 278 m 1
 457 659 l 1
 232 278 l 1
 457 278 l 1
EndSplineSet
Validated: 1
EndChar

StartChar: ordfeminine
Encoding: 170 170 139
Width: 403
Flags: W
LayerCount: 3
Fore
SplineSet
313 361 m 1
 284 361 l 1
 277 399 l 1
 247 374 209 355 172 355 c 0
 116 355 77 386 77 440 c 0
 77 509 137 551 275 560 c 1
 275 584 l 2
 275 625 251 646 206 646 c 0
 173 646 141 637 104 620 c 1
 100 656 l 1
 134 670 169 680 209 680 c 0
 275 680 313 648 313 586 c 2
 313 361 l 1
320 236 m 1
 80 236 l 1
 80 273 l 1
 314 273 l 1
 320 236 l 1
275 432 m 1
 275 529 l 1
 153 521 115 487 115 442 c 0
 115 409 139 388 176 388 c 0
 207 388 242 404 275 432 c 1
EndSplineSet
Validated: 1
EndChar

StartChar: Lslash
Encoding: 284 321 140
Width: 484
Flags: W
LayerCount: 3
Fore
SplineSet
454 0 m 1
 119 0 l 1
 119 328 l 1
 38 304 l 1
 31 345 l 1
 119 371 l 1
 119 690 l 1
 167 690 l 1
 167 386 l 1
 327 435 l 1
 327 392 l 1
 167 343 l 1
 167 43 l 1
 447 43 l 1
 454 0 l 1
EndSplineSet
Validated: 1
EndChar

StartChar: Oslash
Encoding: 216 216 141
Width: 744
Flags: W
LayerCount: 3
Fore
SplineSet
683 688 m 1
 602 591 l 1
 651 529 679 444 679 346 c 0
 679 136 548 -13 371 -13 c 0
 291 -13 221 17 168 69 c 1
 105 -7 l 1
 61 2 l 1
 142 99 l 1
 93 161 65 246 65 344 c 0
 65 554 196 703 373 703 c 0
 453 703 522 673 575 621 c 1
 639 697 l 1
 683 688 l 1
547 587 m 1
 502 634 443 661 371 661 c 0
 218 661 114 531 114 346 c 0
 114 261 135 188 173 134 c 1
 547 587 l 1
630 344 m 0
 630 429 608 502 571 556 c 1
 197 103 l 1
 241 56 301 29 373 29 c 0
 526 29 630 159 630 344 c 0
EndSplineSet
Validated: 1
EndChar

StartChar: OE
Encoding: 285 338 142
Width: 874
Flags: W
LayerCount: 3
Fore
SplineSet
828 0 m 1
 416 0 l 2
 196 0 60 137 60 344 c 0
 60 561 209 690 419 690 c 2
 818 690 l 1
 818 647 l 1
 520 647 l 1
 520 383 l 1
 758 383 l 1
 765 340 l 1
 520 340 l 1
 520 43 l 1
 828 43 l 1
 828 0 l 1
472 43 m 1
 472 647 l 1
 414 647 l 2
 232 647 110 544 110 345 c 0
 110 149 234 43 417 43 c 2
 472 43 l 1
EndSplineSet
Validated: 1
EndChar

StartChar: ordmasculine
Encoding: 186 186 143
Width: 403
Flags: W
LayerCount: 3
Fore
SplineSet
339 518 m 0
 339 427 290 355 201 355 c 0
 113 355 63 427 63 518 c 0
 63 608 113 680 201 680 c 0
 290 680 339 608 339 518 c 0
330 236 m 1
 73 236 l 1
 73 273 l 1
 324 273 l 1
 330 236 l 1
299 518 m 0
 299 586 268 645 201 645 c 0
 135 645 103 587 103 518 c 0
 103 449 135 390 201 390 c 0
 268 390 299 448 299 518 c 0
EndSplineSet
Validated: 1
EndChar

StartChar: ae
Encoding: 230 230 144
Width: 790
Flags: W
LayerCount: 3
Fore
SplineSet
736 245 m 0
 736 242 736 239 736 235 c 1
 404 235 l 1
 404 115 466 31 564 31 c 0
 621 31 680 61 727 103 c 1
 735 59 l 1
 690 21 630 -10 562 -10 c 0
 492 -10 433 24 396 82 c 1
 338 28 275 -10 196 -10 c 0
 113 -10 52 37 52 116 c 0
 52 220 132 276 358 297 c 1
 358 340 l 2
 358 405 319 436 254 436 c 0
 200 436 145 421 93 394 c 1
 87 438 l 1
 139 463 194 479 256 479 c 0
 338 479 383 444 395 380 c 1
 429 444 486 480 557 480 c 0
 676 480 736 375 736 245 c 0
686 274 m 1
 683 366 638 441 557 441 c 0
 468 441 416 372 405 274 c 1
 686 274 l 1
379 117 m 1
 366 151 358 191 358 235 c 0
 358 242 358 253 358 259 c 1
 164 238 100 196 100 120 c 0
 100 66 139 31 199 31 c 0
 261 31 324 66 379 117 c 1
EndSplineSet
Validated: 1
EndChar

StartChar: dotlessi
Encoding: 286 305 145
Width: 225
Flags: W
LayerCount: 3
Fore
SplineSet
136 0 m 1
 90 0 l 1
 90 470 l 1
 136 470 l 1
 136 0 l 1
EndSplineSet
Validated: 1
EndChar

StartChar: lslash
Encoding: 287 322 146
Width: 263
Flags: W
LayerCount: 3
Fore
SplineSet
242 386 m 1
 155 360 l 1
 155 0 l 1
 108 0 l 1
 108 346 l 1
 27 321 l 1
 19 361 l 1
 108 389 l 1
 108 705 l 1
 155 715 l 1
 155 403 l 1
 242 429 l 1
 242 386 l 1
EndSplineSet
Validated: 1
EndChar

StartChar: oslash
Encoding: 248 248 147
Width: 519
Flags: W
LayerCount: 3
Fore
SplineSet
472 468 m 1
 418 402 l 1
 448 361 467 305 467 235 c 0
 467 80 374 -10 259 -10 c 0
 208 -10 162 7 126 39 c 1
 90 -7 l 1
 48 2 l 1
 101 68 l 1
 70 109 52 166 52 235 c 0
 52 391 145 480 259 480 c 0
 311 480 358 463 393 430 c 1
 431 478 l 1
 472 468 l 1
367 396 m 1
 339 425 304 441 259 441 c 0
 156 441 98 357 98 235 c 0
 98 184 109 138 130 103 c 1
 367 396 l 1
389 367 m 1
 153 73 l 1
 179 46 215 29 259 29 c 0
 361 29 421 113 421 235 c 0
 421 286 410 332 389 367 c 1
EndSplineSet
Validated: 1
EndChar

StartChar: oe
Encoding: 288 339 148
Width: 851
Flags: W
LayerCount: 3
Fore
SplineSet
797 245 m 0
 797 242 797 239 797 235 c 1
 465 235 l 1
 465 115 527 31 625 31 c 0
 683 31 741 61 789 103 c 1
 796 59 l 1
 751 21 691 -10 623 -10 c 0
 542 -10 471 38 441 122 c 1
 410 37 340 -10 257 -10 c 0
 142 -10 52 80 52 235 c 0
 52 391 145 480 257 480 c 0
 342 480 411 434 442 348 c 1
 472 431 537 480 619 480 c 0
 737 480 797 375 797 245 c 0
748 274 m 1
 744 366 699 441 619 441 c 0
 530 441 478 372 467 274 c 1
 748 274 l 1
419 235 m 0
 419 352 358 439 257 439 c 0
 157 439 101 356 101 235 c 0
 101 117 158 31 257 31 c 0
 359 31 419 113 419 235 c 0
EndSplineSet
Validated: 1
EndChar

StartChar: germandbls
Encoding: 223 223 149
Width: 596
Flags: W
LayerCount: 3
Fore
SplineSet
554 146 m 0
 554 47 485 -9 388 -9 c 0
 340 -9 290 2 245 26 c 1
 253 70 l 1
 300 45 347 32 393 32 c 0
 458 32 507 70 507 141 c 0
 507 218 446 277 272 313 c 1
 266 347 l 1
 333 423 367 483 367 555 c 0
 367 628 328 675 262 675 c 0
 199 675 156 627 156 547 c 2
 156 0 l 1
 110 0 l 1
 110 430 l 1
 37 430 l 1
 37 470 l 1
 110 470 l 1
 110 544 l 2
 110 643 167 716 264 716 c 0
 359 716 415 654 415 558 c 0
 415 477 378 420 314 344 c 1
 468 307 554 248 554 146 c 0
EndSplineSet
Validated: 1
EndChar

StartChar: Eth
Encoding: 208 208 151
Width: 718
Flags: W
LayerCount: 3
Fore
SplineSet
653 346 m 0
 653 129 505 0 295 0 c 2
 119 0 l 1
 119 341 l 1
 41 341 l 1
 34 383 l 1
 119 383 l 1
 119 690 l 1
 297 690 l 2
 518 690 653 553 653 346 c 0
603 345 m 0
 603 541 479 647 296 647 c 2
 167 647 l 1
 167 383 l 1
 339 383 l 1
 339 341 l 1
 167 341 l 1
 167 43 l 1
 299 43 l 2
 481 43 603 146 603 345 c 0
EndSplineSet
Validated: 1
EndChar

StartChar: eth
Encoding: 240 240 152
Width: 523
Flags: W
LayerCount: 3
Fore
SplineSet
459 304 m 0
 459 180 430 98 376 44 c 0
 340 8 296 -10 247 -10 c 0
 140 -10 52 72 52 213 c 0
 52 341 141 445 249 445 c 0
 318 445 368 418 409 382 c 1
 398 477 366 546 312 596 c 1
 259 515 l 1
 214 515 l 1
 283 619 l 1
 248 644 206 662 156 675 c 1
 163 715 l 1
 219 701 265 680 305 653 c 1
 345 715 l 1
 384 705 l 1
 335 630 l 1
 420 558 459 448 459 304 c 0
413 325 m 1
 368 375 314 404 250 404 c 0
 163 404 101 317 101 216 c 0
 101 101 160 31 251 31 c 0
 345 31 413 124 413 301 c 0
 413 309 413 317 413 325 c 1
EndSplineSet
Validated: 1
EndChar

StartChar: Scaron
Encoding: 290 352 153
Width: 512
Flags: W
LayerCount: 3
Fore
SplineSet
454 178 m 0
 454 61 357 -8 243 -8 c 0
 163 -8 105 11 67 33 c 1
 74 82 l 1
 113 58 175 35 246 35 c 0
 334 35 404 89 404 175 c 0
 404 247 364 288 259 333 c 0
 125 390 78 436 78 532 c 0
 78 630 161 698 266 698 c 0
 330 698 381 684 415 664 c 1
 408 616 l 1
 368 639 323 655 264 655 c 0
 181 655 127 602 127 534 c 0
 127 462 166 428 274 382 c 0
 397 330 454 277 454 178 c 0
386 902 m 1
 277 753 l 1
 234 753 l 1
 130 898 l 1
 156 904 l 1
 257 808 l 1
 354 902 l 1
 386 902 l 1
EndSplineSet
Validated: 1
EndChar

StartChar: scaron
Encoding: 291 353 154
Width: 434
Flags: W
LayerCount: 3
Fore
SplineSet
382 124 m 0
 382 39 313 -8 215 -8 c 0
 152 -8 90 11 48 34 c 1
 57 80 l 1
 101 55 158 34 220 34 c 0
 290 34 336 65 336 120 c 0
 336 169 307 194 206 222 c 0
 107 249 62 283 62 355 c 0
 62 427 124 479 217 479 c 0
 270 479 317 466 355 447 c 1
 347 402 l 1
 304 424 260 436 215 436 c 0
 141 436 108 401 108 358 c 0
 108 314 136 292 220 269 c 0
 327 240 382 203 382 124 c 0
344 701 m 1
 235 552 l 1
 192 552 l 1
 88 697 l 1
 114 703 l 1
 215 607 l 1
 312 701 l 1
 344 701 l 1
EndSplineSet
Validated: 1
EndChar

StartChar: Yacute
Encoding: 221 221 155
Width: 621
Flags: W
LayerCount: 3
Fore
SplineSet
580 690 m 1
 334 297 l 1
 334 0 l 1
 286 0 l 1
 286 296 l 1
 41 687 l 1
 89 697 l 1
 311 336 l 1
 528 690 l 1
 580 690 l 1
455 866 m 1
 317 726 l 1
 281 726 l 1
 387 881 l 1
 455 866 l 1
EndSplineSet
Validated: 1
EndChar

StartChar: yacute
Encoding: 253 253 156
Width: 477
Flags: W
LayerCount: 3
Fore
SplineSet
442 470 m 1
 236 -72 l 2
 207 -150 173 -178 110 -178 c 0
 102 -178 94 -177 88 -176 c 1
 81 -135 l 1
 88 -135 97 -136 111 -136 c 0
 152 -136 174 -119 194 -67 c 2
 219 -3 l 1
 36 465 l 1
 82 475 l 1
 242 53 l 1
 393 470 l 1
 442 470 l 1
384 683 m 1
 246 543 l 1
 210 543 l 1
 316 698 l 1
 384 683 l 1
EndSplineSet
Validated: 1
EndChar

StartChar: Thorn
Encoding: 222 222 157
Width: 538
Flags: W
LayerCount: 3
Fore
SplineSet
485 358 m 0
 485 227 383 158 249 158 c 2
 148 158 l 1
 148 0 l 1
 100 0 l 1
 100 690 l 1
 148 690 l 1
 148 548 l 1
 265 548 l 2
 398 548 485 479 485 358 c 0
435 356 m 0
 435 454 374 505 261 505 c 2
 148 505 l 1
 148 201 l 1
 251 201 l 2
 365 201 435 253 435 356 c 0
EndSplineSet
Validated: 1
EndChar

StartChar: thorn
Encoding: 254 254 158
Width: 526
Flags: W
LayerCount: 3
Fore
SplineSet
472 248 m 0
 472 77 370 -6 256 -6 c 0
 209 -6 167 3 130 18 c 1
 130 -177 l 1
 83 -187 l 1
 83 705 l 1
 130 715 l 1
 130 403 l 1
 168 447 213 480 279 480 c 0
 383 480 472 406 472 248 c 0
423 246 m 0
 423 370 362 437 278 437 c 0
 219 437 177 404 130 350 c 1
 130 64 l 1
 167 46 208 35 255 35 c 0
 349 35 423 102 423 246 c 0
EndSplineSet
Validated: 1
EndChar

StartChar: Zcaron
Encoding: 292 381 159
Width: 610
Flags: W
LayerCount: 3
Fore
SplineSet
549 0 m 1
 65 0 l 1
 65 32 l 1
 485 649 l 1
 93 649 l 1
 87 690 l 1
 544 690 l 1
 544 658 l 1
 124 41 l 1
 543 41 l 1
 549 0 l 1
441 893 m 1
 332 744 l 1
 289 744 l 1
 185 889 l 1
 211 895 l 1
 312 799 l 1
 409 893 l 1
 441 893 l 1
EndSplineSet
Validated: 1
EndChar

StartChar: zcaron
Encoding: 293 382 160
Width: 447
Flags: W
LayerCount: 3
Fore
SplineSet
399 0 m 1
 46 0 l 1
 46 36 l 1
 340 431 l 1
 70 431 l 1
 64 470 l 1
 395 470 l 1
 395 435 l 1
 101 39 l 1
 393 39 l 1
 399 0 l 1
357 701 m 1
 248 552 l 1
 205 552 l 1
 101 697 l 1
 127 703 l 1
 228 607 l 1
 325 701 l 1
 357 701 l 1
EndSplineSet
Validated: 1
EndChar

StartChar: onehalf
Encoding: 189 189 161
Width: 500
Flags: W
LayerCount: 3
Fore
SplineSet
25 -200 m 1
 25 800 l 1
 475 800 l 1
 475 -200 l 1
 25 -200 l 1
EndSplineSet
Validated: 1
EndChar

StartChar: onequarter
Encoding: 188 188 162
Width: 500
Flags: W
LayerCount: 3
Fore
SplineSet
25 -200 m 1
 25 800 l 1
 475 800 l 1
 475 -200 l 1
 25 -200 l 1
EndSplineSet
Validated: 1
EndChar

StartChar: onesuperior
Encoding: 185 185 163
Width: 500
Flags: W
LayerCount: 3
Fore
SplineSet
25 -200 m 1
 25 800 l 1
 475 800 l 1
 475 -200 l 1
 25 -200 l 1
EndSplineSet
Validated: 1
EndChar

StartChar: threequarters
Encoding: 190 190 164
Width: 500
Flags: W
LayerCount: 3
Fore
SplineSet
25 -200 m 1
 25 800 l 1
 475 800 l 1
 475 -200 l 1
 25 -200 l 1
EndSplineSet
Validated: 1
EndChar

StartChar: threesuperior
Encoding: 179 179 165
Width: 500
Flags: W
LayerCount: 3
Fore
SplineSet
25 -200 m 1
 25 800 l 1
 475 800 l 1
 475 -200 l 1
 25 -200 l 1
EndSplineSet
Validated: 1
EndChar

StartChar: twosuperior
Encoding: 178 178 166
Width: 500
Flags: W
LayerCount: 3
Fore
SplineSet
25 -200 m 1
 25 800 l 1
 475 800 l 1
 475 -200 l 1
 25 -200 l 1
EndSplineSet
Validated: 1
EndChar

StartChar: brokenbar
Encoding: 166 166 167
Width: 500
Flags: W
LayerCount: 3
Fore
SplineSet
25 -200 m 1
 25 800 l 1
 475 800 l 1
 475 -200 l 1
 25 -200 l 1
EndSplineSet
Validated: 1
EndChar

StartChar: minus
Encoding: 294 8722 168
Width: 500
Flags: W
LayerCount: 3
Fore
SplineSet
25 -200 m 1
 25 800 l 1
 475 800 l 1
 475 -200 l 1
 25 -200 l 1
EndSplineSet
Validated: 1
EndChar

StartChar: multiply
Encoding: 215 215 169
Width: 500
Flags: W
LayerCount: 3
Fore
SplineSet
25 -200 m 1
 25 800 l 1
 475 800 l 1
 475 -200 l 1
 25 -200 l 1
EndSplineSet
Validated: 1
EndChar

StartChar: Adieresis
Encoding: 196 196 170
Width: 694
Flags: W
LayerCount: 3
Fore
SplineSet
647 4 m 1
 599 -7 l 1
 504 236 l 1
 188 236 l 1
 97 0 l 1
 47 0 l 1
 321 694 l 1
 373 694 l 1
 647 4 l 1
488 279 m 1
 346 640 l 1
 206 279 l 1
 488 279 l 1
466 753 m 1
 396 753 l 1
 396 832 l 1
 466 832 l 1
 466 753 l 1
299 753 m 1
 230 753 l 1
 230 832 l 1
 299 832 l 1
 299 753 l 1
EndSplineSet
Validated: 1
EndChar

StartChar: Aring
Encoding: 197 197 171
Width: 694
Flags: W
LayerCount: 3
Fore
SplineSet
647 4 m 1
 599 -7 l 1
 504 236 l 1
 188 236 l 1
 97 0 l 1
 47 0 l 1
 321 694 l 1
 373 694 l 1
 647 4 l 1
488 279 m 1
 346 640 l 1
 206 279 l 1
 488 279 l 1
441 834 m 0
 441 781 401 742 348 742 c 0
 295 742 254 781 254 834 c 0
 254 886 295 928 348 928 c 0
 401 928 441 886 441 834 c 0
407 834 m 0
 407 870 382 897 348 897 c 0
 314 897 288 870 288 834 c 0
 288 798 314 772 348 772 c 0
 382 772 407 798 407 834 c 0
EndSplineSet
Validated: 1
EndChar

StartChar: Ccedilla
Encoding: 199 199 172
Width: 650
Flags: W
LayerCount: 3
Fore
SplineSet
585 58 m 1
 533 18 459 -13 374 -13 c 0
 193 -13 65 131 65 344 c 0
 65 554 195 703 382 703 c 0
 456 703 522 679 574 643 c 1
 565 593 l 1
 508 634 448 660 381 660 c 0
 218 660 115 530 115 346 c 0
 115 161 219 30 378 30 c 0
 453 30 522 60 578 104 c 1
 585 58 l 1
410 -67 m 1
 289 -186 l 1
 255 -186 l 1
 345 -51 l 1
 410 -67 l 1
EndSplineSet
Validated: 1
EndChar

StartChar: Eacute
Encoding: 201 201 173
Width: 505
Flags: W
LayerCount: 3
Fore
SplineSet
459 0 m 1
 100 0 l 1
 100 690 l 1
 449 690 l 1
 449 647 l 1
 148 647 l 1
 148 383 l 1
 390 383 l 1
 396 340 l 1
 148 340 l 1
 148 43 l 1
 459 43 l 1
 459 0 l 1
400 885 m 1
 262 745 l 1
 226 745 l 1
 332 900 l 1
 400 885 l 1
EndSplineSet
Validated: 1
EndChar

StartChar: Ntilde
Encoding: 209 209 174
Width: 707
Flags: W
LayerCount: 3
Fore
SplineSet
607 0 m 1
 569 0 l 1
 146 617 l 1
 146 0 l 1
 100 0 l 1
 100 690 l 1
 149 690 l 1
 561 90 l 1
 561 690 l 1
 607 690 l 1
 607 0 l 1
499 838 m 1
 489 778 461 743 427 743 c 0
 399 743 385 751 349 770 c 0
 317 787 304 797 287 797 c 0
 271 797 257 779 248 742 c 1
 214 749 l 1
 225 810 252 845 286 845 c 0
 315 845 328 836 364 817 c 0
 396 800 410 791 426 791 c 0
 443 791 456 809 466 845 c 1
 499 838 l 1
EndSplineSet
Validated: 1
EndChar

StartChar: Odieresis
Encoding: 214 214 175
Width: 744
Flags: W
LayerCount: 3
Fore
SplineSet
679 346 m 0
 679 136 548 -13 371 -13 c 0
 194 -13 65 135 65 344 c 0
 65 554 196 703 373 703 c 0
 550 703 679 555 679 346 c 0
629 344 m 0
 629 530 524 660 371 660 c 0
 219 660 115 530 115 346 c 0
 115 160 220 30 373 30 c 0
 525 30 629 160 629 344 c 0
488 762 m 1
 418 762 l 1
 418 841 l 1
 488 841 l 1
 488 762 l 1
321 762 m 1
 252 762 l 1
 252 841 l 1
 321 841 l 1
 321 762 l 1
EndSplineSet
Validated: 1
EndChar

StartChar: Udieresis
Encoding: 220 220 176
Width: 674
Flags: W
LayerCount: 3
Fore
SplineSet
589 260 m 2
 589 99 494 -10 335 -10 c 0
 177 -10 85 101 85 255 c 2
 85 690 l 1
 133 690 l 1
 133 262 l 2
 133 127 204 33 337 33 c 0
 468 33 541 122 541 257 c 2
 541 690 l 1
 589 690 l 1
 589 260 l 2
455 744 m 1
 385 744 l 1
 385 823 l 1
 455 823 l 1
 455 744 l 1
288 744 m 1
 219 744 l 1
 219 823 l 1
 288 823 l 1
 288 744 l 1
EndSplineSet
Validated: 1
EndChar

StartChar: aacute
Encoding: 225 225 177
Width: 481
Flags: W
LayerCount: 3
Fore
SplineSet
404 0 m 1
 371 0 l 1
 360 63 l 1
 311 20 253 -10 194 -10 c 0
 115 -10 52 30 52 115 c 0
 52 220 132 276 358 297 c 1
 358 338 l 2
 358 404 319 436 254 436 c 0
 200 436 145 421 93 394 c 1
 87 438 l 1
 140 462 194 479 256 479 c 0
 352 479 404 430 404 340 c 2
 404 0 l 1
358 106 m 1
 358 258 l 1
 164 237 100 196 100 119 c 0
 100 59 143 31 196 31 c 0
 246 31 307 61 358 106 c 1
382 692 m 1
 244 552 l 1
 208 552 l 1
 314 707 l 1
 382 692 l 1
EndSplineSet
Validated: 1
EndChar

StartChar: agrave
Encoding: 224 224 178
Width: 481
Flags: W
LayerCount: 3
Fore
SplineSet
404 0 m 1
 371 0 l 1
 360 63 l 1
 311 20 253 -10 194 -10 c 0
 115 -10 52 30 52 115 c 0
 52 220 132 276 358 297 c 1
 358 338 l 2
 358 404 319 436 254 436 c 0
 200 436 145 421 93 394 c 1
 87 438 l 1
 140 462 194 479 256 479 c 0
 352 479 404 430 404 340 c 2
 404 0 l 1
358 106 m 1
 358 258 l 1
 164 237 100 196 100 119 c 0
 100 59 143 31 196 31 c 0
 246 31 307 61 358 106 c 1
271 552 m 1
 236 552 l 1
 98 692 l 1
 167 707 l 1
 271 552 l 1
EndSplineSet
Validated: 1
EndChar

StartChar: acircumflex
Encoding: 226 226 179
Width: 481
Flags: W
LayerCount: 3
Fore
SplineSet
404 0 m 1
 371 0 l 1
 360 63 l 1
 311 20 253 -10 194 -10 c 0
 115 -10 52 30 52 115 c 0
 52 220 132 276 358 297 c 1
 358 338 l 2
 358 404 319 436 254 436 c 0
 200 436 145 421 93 394 c 1
 87 438 l 1
 140 462 194 479 256 479 c 0
 352 479 404 430 404 340 c 2
 404 0 l 1
358 106 m 1
 358 258 l 1
 164 237 100 196 100 119 c 0
 100 59 143 31 196 31 c 0
 246 31 307 61 358 106 c 1
370 555 m 1
 344 550 l 1
 244 645 l 1
 147 552 l 1
 115 552 l 1
 224 701 l 1
 267 701 l 1
 370 555 l 1
EndSplineSet
Validated: 1
EndChar

StartChar: adieresis
Encoding: 228 228 180
Width: 481
Flags: W
LayerCount: 3
Fore
SplineSet
404 0 m 1
 371 0 l 1
 360 63 l 1
 311 20 253 -10 194 -10 c 0
 115 -10 52 30 52 115 c 0
 52 220 132 276 358 297 c 1
 358 338 l 2
 358 404 319 436 254 436 c 0
 200 436 145 421 93 394 c 1
 87 438 l 1
 140 462 194 479 256 479 c 0
 352 479 404 430 404 340 c 2
 404 0 l 1
358 106 m 1
 358 258 l 1
 164 237 100 196 100 119 c 0
 100 59 143 31 196 31 c 0
 246 31 307 61 358 106 c 1
363 561 m 1
 293 561 l 1
 293 640 l 1
 363 640 l 1
 363 561 l 1
196 561 m 1
 127 561 l 1
 127 640 l 1
 196 640 l 1
 196 561 l 1
EndSplineSet
Validated: 1
EndChar

StartChar: atilde
Encoding: 227 227 181
Width: 481
Flags: W
LayerCount: 3
Fore
SplineSet
404 0 m 1
 371 0 l 1
 360 63 l 1
 311 20 253 -10 194 -10 c 0
 115 -10 52 30 52 115 c 0
 52 220 132 276 358 297 c 1
 358 338 l 2
 358 404 319 436 254 436 c 0
 200 436 145 421 93 394 c 1
 87 438 l 1
 140 462 194 479 256 479 c 0
 352 479 404 430 404 340 c 2
 404 0 l 1
358 106 m 1
 358 258 l 1
 164 237 100 196 100 119 c 0
 100 59 143 31 196 31 c 0
 246 31 307 61 358 106 c 1
387 655 m 1
 377 595 349 560 315 560 c 0
 287 560 273 568 237 587 c 0
 205 604 192 614 175 614 c 0
 159 614 145 596 136 559 c 1
 102 566 l 1
 113 627 140 662 174 662 c 0
 203 662 216 653 252 634 c 0
 284 617 298 608 314 608 c 0
 331 608 344 626 354 662 c 1
 387 655 l 1
EndSplineSet
Validated: 1
EndChar

StartChar: aring
Encoding: 229 229 182
Width: 481
Flags: W
LayerCount: 3
Fore
SplineSet
404 0 m 1
 371 0 l 1
 360 63 l 1
 311 20 253 -10 194 -10 c 0
 115 -10 52 30 52 115 c 0
 52 220 132 276 358 297 c 1
 358 338 l 2
 358 404 319 436 254 436 c 0
 200 436 145 421 93 394 c 1
 87 438 l 1
 140 462 194 479 256 479 c 0
 352 479 404 430 404 340 c 2
 404 0 l 1
358 106 m 1
 358 258 l 1
 164 237 100 196 100 119 c 0
 100 59 143 31 196 31 c 0
 246 31 307 61 358 106 c 1
338 642 m 0
 338 589 298 550 245 550 c 0
 192 550 151 589 151 642 c 0
 151 694 192 736 245 736 c 0
 298 736 338 694 338 642 c 0
304 642 m 0
 304 678 279 705 245 705 c 0
 211 705 185 678 185 642 c 0
 185 606 211 580 245 580 c 0
 279 580 304 606 304 642 c 0
EndSplineSet
Validated: 1
EndChar

StartChar: ccedilla
Encoding: 231 231 183
Width: 464
Flags: W
LayerCount: 3
Fore
SplineSet
417 47 m 1
 374 11 322 -10 259 -10 c 0
 144 -10 52 80 52 235 c 0
 52 391 145 480 262 480 c 0
 321 480 373 459 414 428 c 1
 405 380 l 1
 358 420 314 439 260 439 c 0
 160 439 101 356 101 235 c 0
 101 117 158 31 264 31 c 0
 315 31 362 49 411 91 c 1
 417 47 l 1
308 -67 m 1
 187 -186 l 1
 153 -186 l 1
 243 -51 l 1
 308 -67 l 1
EndSplineSet
Validated: 1
EndChar

StartChar: eacute
Encoding: 233 233 184
Width: 484
Flags: W
LayerCount: 3
Fore
SplineSet
432 245 m 0
 432 242 432 239 432 235 c 1
 100 235 l 1
 100 115 156 31 261 31 c 0
 318 31 378 61 424 103 c 1
 431 59 l 1
 388 20 326 -10 259 -10 c 0
 135 -10 52 82 52 235 c 0
 52 385 138 480 252 480 c 0
 372 480 432 375 432 245 c 0
382 274 m 1
 379 366 334 441 252 441 c 0
 163 441 113 372 102 274 c 1
 382 274 l 1
388 692 m 1
 250 552 l 1
 214 552 l 1
 320 707 l 1
 388 692 l 1
EndSplineSet
Validated: 1
EndChar

StartChar: egrave
Encoding: 232 232 185
Width: 484
Flags: W
LayerCount: 3
Fore
SplineSet
432 245 m 0
 432 242 432 239 432 235 c 1
 100 235 l 1
 100 115 156 31 261 31 c 0
 318 31 378 61 424 103 c 1
 431 59 l 1
 388 20 326 -10 259 -10 c 0
 135 -10 52 82 52 235 c 0
 52 385 138 480 252 480 c 0
 372 480 432 375 432 245 c 0
382 274 m 1
 379 366 334 441 252 441 c 0
 163 441 113 372 102 274 c 1
 382 274 l 1
276 552 m 1
 241 552 l 1
 103 692 l 1
 172 707 l 1
 276 552 l 1
EndSplineSet
Validated: 1
EndChar

StartChar: ecircumflex
Encoding: 234 234 186
Width: 484
Flags: W
LayerCount: 3
Fore
SplineSet
432 245 m 0
 432 242 432 239 432 235 c 1
 100 235 l 1
 100 115 156 31 261 31 c 0
 318 31 378 61 424 103 c 1
 431 59 l 1
 388 20 326 -10 259 -10 c 0
 135 -10 52 82 52 235 c 0
 52 385 138 480 252 480 c 0
 372 480 432 375 432 245 c 0
382 274 m 1
 379 366 334 441 252 441 c 0
 163 441 113 372 102 274 c 1
 382 274 l 1
377 555 m 1
 351 550 l 1
 251 645 l 1
 154 552 l 1
 122 552 l 1
 231 701 l 1
 274 701 l 1
 377 555 l 1
EndSplineSet
Validated: 1
EndChar

StartChar: edieresis
Encoding: 235 235 187
Width: 484
Flags: W
LayerCount: 3
Fore
SplineSet
432 245 m 0
 432 242 432 239 432 235 c 1
 100 235 l 1
 100 115 156 31 261 31 c 0
 318 31 378 61 424 103 c 1
 431 59 l 1
 388 20 326 -10 259 -10 c 0
 135 -10 52 82 52 235 c 0
 52 385 138 480 252 480 c 0
 372 480 432 375 432 245 c 0
382 274 m 1
 379 366 334 441 252 441 c 0
 163 441 113 372 102 274 c 1
 382 274 l 1
370 561 m 1
 300 561 l 1
 300 640 l 1
 370 640 l 1
 370 561 l 1
203 561 m 1
 134 561 l 1
 134 640 l 1
 203 640 l 1
 203 561 l 1
EndSplineSet
Validated: 1
EndChar

StartChar: iacute
Encoding: 237 237 188
Width: 225
Flags: W
LayerCount: 3
Fore
SplineSet
241 692 m 1
 123 552 l 1
 93 552 l 1
 183 707 l 1
 241 692 l 1
136 0 m 1
 90 0 l 1
 90 470 l 1
 136 470 l 1
 136 0 l 1
EndSplineSet
Validated: 1
EndChar

StartChar: igrave
Encoding: 236 236 189
Width: 225
Flags: W
LayerCount: 3
Fore
SplineSet
132 552 m 1
 103 552 l 1
 -15 692 l 1
 44 707 l 1
 132 552 l 1
136 0 m 1
 90 0 l 1
 90 470 l 1
 136 470 l 1
 136 0 l 1
EndSplineSet
Validated: 1
EndChar

StartChar: icircumflex
Encoding: 238 238 190
Width: 225
Flags: W
LayerCount: 3
Fore
SplineSet
226 555 m 1
 203 550 l 1
 113 643 l 1
 26 552 l 1
 -3 552 l 1
 95 701 l 1
 134 701 l 1
 226 555 l 1
136 0 m 1
 90 0 l 1
 90 470 l 1
 136 470 l 1
 136 0 l 1
EndSplineSet
Validated: 1
EndChar

StartChar: idieresis
Encoding: 239 239 191
Width: 225
Flags: W
LayerCount: 3
Fore
SplineSet
222 561 m 1
 155 561 l 1
 155 640 l 1
 222 640 l 1
 222 561 l 1
72 561 m 1
 6 561 l 1
 6 640 l 1
 72 640 l 1
 72 561 l 1
136 0 m 1
 90 0 l 1
 90 470 l 1
 136 470 l 1
 136 0 l 1
EndSplineSet
Validated: 1
EndChar

StartChar: ntilde
Encoding: 241 241 192
Width: 520
Flags: W
LayerCount: 3
Fore
SplineSet
443 0 m 1
 396 0 l 1
 396 327 l 2
 396 398 362 437 295 437 c 0
 243 437 189 407 130 352 c 1
 130 0 l 1
 83 0 l 1
 83 470 l 1
 117 470 l 1
 129 399 l 1
 186 449 238 480 300 480 c 0
 397 480 443 425 443 331 c 2
 443 0 l 1
409 655 m 1
 399 595 371 560 337 560 c 0
 309 560 295 568 259 587 c 0
 227 604 214 614 197 614 c 0
 181 614 167 596 158 559 c 1
 124 566 l 1
 135 627 162 662 196 662 c 0
 225 662 238 653 274 634 c 0
 306 617 320 608 336 608 c 0
 353 608 366 626 376 662 c 1
 409 655 l 1
EndSplineSet
Validated: 1
EndChar

StartChar: oacute
Encoding: 243 243 193
Width: 519
Flags: W
LayerCount: 3
Fore
SplineSet
412 692 m 1
 274 552 l 1
 238 552 l 1
 344 707 l 1
 412 692 l 1
467 235 m 0
 467 80 374 -10 259 -10 c 0
 142 -10 52 80 52 235 c 0
 52 391 145 480 259 480 c 0
 377 480 467 391 467 235 c 0
418 235 m 0
 418 353 361 439 259 439 c 0
 157 439 101 356 101 235 c 0
 101 117 158 31 259 31 c 0
 361 31 418 113 418 235 c 0
EndSplineSet
Validated: 1
EndChar

StartChar: ograve
Encoding: 242 242 194
Width: 519
Flags: W
LayerCount: 3
Fore
SplineSet
467 235 m 0
 467 80 374 -10 259 -10 c 0
 142 -10 52 80 52 235 c 0
 52 391 145 480 259 480 c 0
 377 480 467 391 467 235 c 0
418 235 m 0
 418 353 361 439 259 439 c 0
 157 439 101 356 101 235 c 0
 101 117 158 31 259 31 c 0
 361 31 418 113 418 235 c 0
281 552 m 1
 246 552 l 1
 108 692 l 1
 177 707 l 1
 281 552 l 1
EndSplineSet
Validated: 1
EndChar

StartChar: ocircumflex
Encoding: 244 244 195
Width: 519
Flags: W
LayerCount: 3
Fore
SplineSet
467 235 m 0
 467 80 374 -10 259 -10 c 0
 142 -10 52 80 52 235 c 0
 52 391 145 480 259 480 c 0
 377 480 467 391 467 235 c 0
418 235 m 0
 418 353 361 439 259 439 c 0
 157 439 101 356 101 235 c 0
 101 117 158 31 259 31 c 0
 361 31 418 113 418 235 c 0
385 555 m 1
 359 550 l 1
 259 645 l 1
 162 552 l 1
 130 552 l 1
 239 701 l 1
 282 701 l 1
 385 555 l 1
EndSplineSet
Validated: 1
EndChar

StartChar: odieresis
Encoding: 246 246 196
Width: 519
Flags: W
LayerCount: 3
Fore
SplineSet
467 235 m 0
 467 80 374 -10 259 -10 c 0
 142 -10 52 80 52 235 c 0
 52 391 145 480 259 480 c 0
 377 480 467 391 467 235 c 0
418 235 m 0
 418 353 361 439 259 439 c 0
 157 439 101 356 101 235 c 0
 101 117 158 31 259 31 c 0
 361 31 418 113 418 235 c 0
378 561 m 1
 308 561 l 1
 308 640 l 1
 378 640 l 1
 378 561 l 1
211 561 m 1
 142 561 l 1
 142 640 l 1
 211 640 l 1
 211 561 l 1
EndSplineSet
Validated: 1
EndChar

StartChar: otilde
Encoding: 245 245 197
Width: 519
Flags: W
LayerCount: 3
Fore
SplineSet
467 235 m 0
 467 80 374 -10 259 -10 c 0
 142 -10 52 80 52 235 c 0
 52 391 145 480 259 480 c 0
 377 480 467 391 467 235 c 0
418 235 m 0
 418 353 361 439 259 439 c 0
 157 439 101 356 101 235 c 0
 101 117 158 31 259 31 c 0
 361 31 418 113 418 235 c 0
404 655 m 1
 394 595 366 560 332 560 c 0
 304 560 290 568 254 587 c 0
 222 604 209 614 192 614 c 0
 176 614 162 596 153 559 c 1
 119 566 l 1
 130 627 157 662 191 662 c 0
 220 662 233 653 269 634 c 0
 301 617 315 608 331 608 c 0
 348 608 361 626 371 662 c 1
 404 655 l 1
EndSplineSet
Validated: 1
EndChar

StartChar: uacute
Encoding: 250 250 198
Width: 520
Flags: W
LayerCount: 3
Fore
SplineSet
437 0 m 1
 403 0 l 1
 391 71 l 1
 334 21 282 -10 220 -10 c 0
 123 -10 77 45 77 139 c 2
 77 470 l 1
 124 470 l 1
 124 143 l 2
 124 72 158 33 225 33 c 0
 277 33 331 63 390 118 c 1
 390 470 l 1
 437 470 l 1
 437 0 l 1
402 692 m 1
 264 552 l 1
 228 552 l 1
 334 707 l 1
 402 692 l 1
EndSplineSet
Validated: 1
EndChar

StartChar: ugrave
Encoding: 249 249 199
Width: 520
Flags: W
LayerCount: 3
Fore
SplineSet
437 0 m 1
 403 0 l 1
 391 71 l 1
 334 21 282 -10 220 -10 c 0
 123 -10 77 45 77 139 c 2
 77 470 l 1
 124 470 l 1
 124 143 l 2
 124 72 158 33 225 33 c 0
 277 33 331 63 390 118 c 1
 390 470 l 1
 437 470 l 1
 437 0 l 1
285 552 m 1
 250 552 l 1
 112 692 l 1
 181 707 l 1
 285 552 l 1
EndSplineSet
Validated: 1
EndChar

StartChar: ucircumflex
Encoding: 251 251 200
Width: 520
Flags: W
LayerCount: 3
Fore
SplineSet
437 0 m 1
 403 0 l 1
 391 71 l 1
 334 21 282 -10 220 -10 c 0
 123 -10 77 45 77 139 c 2
 77 470 l 1
 124 470 l 1
 124 143 l 2
 124 72 158 33 225 33 c 0
 277 33 331 63 390 118 c 1
 390 470 l 1
 437 470 l 1
 437 0 l 1
384 555 m 1
 358 550 l 1
 258 645 l 1
 161 552 l 1
 129 552 l 1
 238 701 l 1
 281 701 l 1
 384 555 l 1
EndSplineSet
Validated: 1
EndChar

StartChar: udieresis
Encoding: 252 252 201
Width: 520
Flags: W
LayerCount: 3
Fore
SplineSet
437 0 m 1
 403 0 l 1
 391 71 l 1
 334 21 282 -10 220 -10 c 0
 123 -10 77 45 77 139 c 2
 77 470 l 1
 124 470 l 1
 124 143 l 2
 124 72 158 33 225 33 c 0
 277 33 331 63 390 118 c 1
 390 470 l 1
 437 470 l 1
 437 0 l 1
377 561 m 1
 307 561 l 1
 307 640 l 1
 377 640 l 1
 377 561 l 1
210 561 m 1
 141 561 l 1
 141 640 l 1
 210 640 l 1
 210 561 l 1
EndSplineSet
Validated: 1
EndChar

StartChar: degree
Encoding: 176 176 202
Width: 428
Flags: W
LayerCount: 3
Fore
SplineSet
366 530 m 0
 366 443 300 378 214 378 c 0
 129 378 62 443 62 530 c 0
 62 616 129 681 214 681 c 0
 300 681 366 616 366 530 c 0
325 530 m 0
 325 594 279 647 213 647 c 0
 148 647 103 594 103 530 c 0
 103 465 150 412 215 412 c 0
 281 412 325 465 325 530 c 0
EndSplineSet
Validated: 1
EndChar

StartChar: registered
Encoding: 174 174 203
Width: 569
Flags: W
LayerCount: 3
Fore
SplineSet
511 465 m 0
 511 330 420 233 285 233 c 0
 149 233 58 331 58 467 c 0
 58 601 149 698 285 698 c 0
 420 698 511 600 511 465 c 0
490 465 m 0
 490 588 407 678 284 678 c 0
 161 678 80 588 80 467 c 0
 80 343 162 253 285 253 c 0
 408 253 490 343 490 465 c 0
388 350 m 1
 354 343 l 1
 276 452 l 1
 246 452 l 1
 246 345 l 1
 215 345 l 1
 215 603 l 1
 279 603 l 2
 333 603 367 575 367 529 c 0
 367 489 341 466 310 457 c 1
 388 350 l 1
336 527 m 0
 336 557 315 575 277 575 c 2
 245 575 l 1
 245 479 l 1
 276 479 l 2
 312 479 336 496 336 527 c 0
EndSplineSet
Validated: 1
EndChar

StartChar: copyright
Encoding: 169 169 204
Width: 811
Flags: W
LayerCount: 3
Fore
SplineSet
749 345 m 0
 749 137 615 -13 406 -13 c 0
 198 -13 61 137 61 345 c 0
 61 553 196 703 404 703 c 0
 613 703 749 553 749 345 c 0
722 345 m 0
 722 540 598 679 404 679 c 0
 209 679 89 540 89 345 c 0
 89 150 212 11 407 11 c 0
 602 11 722 150 722 345 c 0
537 188 m 1
 503 163 460 145 411 145 c 0
 310 145 237 229 237 348 c 0
 237 468 311 552 414 552 c 0
 458 552 497 538 531 516 c 1
 523 473 l 1
 487 501 453 514 413 514 c 0
 330 514 279 445 279 348 c 0
 279 252 332 182 413 182 c 0
 455 182 492 198 532 229 c 1
 537 188 l 1
EndSplineSet
Validated: 1
EndChar

StartChar: trademark
Encoding: 295 8482 205
Width: 802
Flags: W
LayerCount: 3
Fore
SplineSet
726 345 m 1
 689 345 l 1
 668 631 l 1
 554 344 l 1
 523 344 l 1
 411 630 l 1
 389 345 l 1
 354 345 l 1
 380 690 l 1
 424 690 l 1
 540 386 l 1
 656 690 l 1
 699 690 l 1
 726 345 l 1
294 656 m 1
 186 656 l 1
 186 345 l 1
 149 345 l 1
 149 656 l 1
 40 656 l 1
 40 690 l 1
 289 690 l 1
 294 656 l 1
EndSplineSet
Validated: 1
EndChar

StartChar: notequal
Encoding: 296 8800 206
Width: 531
Flags: W
LayerCount: 3
Fore
SplineSet
460 184 m 0
 460 76 371 -13 238 -13 c 0
 170 -13 100 9 54 40 c 1
 62 88 l 1
 121 48 174 29 242 29 c 0
 350 29 411 99 411 184 c 0
 411 290 335 340 196 340 c 2
 171 340 l 1
 166 374 l 1
 392 634 l 1
 69 634 l 1
 63 676 l 1
 456 676 l 1
 456 643 l 1
 224 379 l 1
 356 376 460 319 460 184 c 0
EndSplineSet
Validated: 1
EndChar

StartChar: infinity
Encoding: 297 8734 207
Width: 481
Flags: W
LayerCount: 3
Fore
SplineSet
404 0 m 1
 371 0 l 1
 360 63 l 1
 311 20 253 -10 194 -10 c 0
 115 -10 52 30 52 115 c 0
 52 220 132 276 358 297 c 1
 358 338 l 2
 358 404 319 436 254 436 c 0
 200 436 145 421 93 394 c 1
 87 438 l 1
 140 462 194 479 256 479 c 0
 352 479 404 430 404 340 c 2
 404 0 l 1
358 106 m 1
 358 258 l 1
 164 237 100 196 100 119 c 0
 100 59 143 31 196 31 c 0
 246 31 307 61 358 106 c 1
EndSplineSet
Validated: 1
EndChar

StartChar: plusminus
Encoding: 177 177 208
Width: 596
Flags: W
LayerCount: 3
Fore
SplineSet
557 166 m 1
 443 166 l 1
 443 0 l 1
 398 0 l 1
 398 166 l 1
 45 166 l 1
 45 196 l 1
 386 682 l 1
 431 673 l 1
 102 206 l 1
 398 206 l 1
 398 405 l 1
 443 416 l 1
 443 206 l 1
 557 206 l 1
 557 166 l 1
EndSplineSet
Validated: 1
EndChar

StartChar: lessequal
Encoding: 298 8804 209
Width: 886
Flags: W
LayerCount: 3
Fore
SplineSet
785 0 m 1
 737 0 l 1
 737 608 l 1
 462 -3 l 1
 422 -3 l 1
 147 608 l 1
 147 0 l 1
 101 0 l 1
 101 690 l 1
 161 690 l 1
 443 56 l 1
 725 690 l 1
 785 690 l 1
 785 0 l 1
EndSplineSet
Validated: 1
EndChar

StartChar: greaterequal
Encoding: 299 8805 210
Width: 693
Flags: W
LayerCount: 3
Fore
SplineSet
547 87 m 1
 480 29 403 -8 324 -8 c 0
 186 -8 95 62 95 221 c 2
 95 690 l 1
 143 690 l 1
 143 224 l 2
 143 97 211 35 327 35 c 0
 408 35 477 76 545 137 c 1
 545 690 l 1
 593 690 l 1
 593 0 l 1
 560 0 l 1
 547 87 l 1
EndSplineSet
Validated: 1
EndChar

StartChar: mu
Encoding: 181 181 211
Width: 568
Flags: W
LayerCount: 3
Fore
SplineSet
454 139 m 1
 283 311 l 1
 113 140 l 1
 86 167 l 1
 257 337 l 1
 85 508 l 1
 114 537 l 1
 285 365 l 1
 455 536 l 1
 482 509 l 1
 311 339 l 1
 483 168 l 1
 454 139 l 1
EndSplineSet
Validated: 1
EndChar

StartChar: partialdiff
Encoding: 300 8706 212
Width: 748
Flags: W
LayerCount: 3
Fore
SplineSet
694 30 m 1
 683 -14 l 1
 575 70 l 1
 522 17 450 -13 371 -13 c 0
 194 -13 65 135 65 344 c 0
 65 554 196 703 373 703 c 0
 550 703 679 555 679 346 c 0
 679 248 651 163 602 101 c 1
 694 30 l 1
629 344 m 0
 629 530 524 660 371 660 c 0
 218 660 115 532 115 346 c 0
 115 160 220 30 373 30 c 0
 441 30 499 54 542 96 c 1
 351 240 l 1
 408 250 l 1
 567 126 l 1
 607 181 629 255 629 344 c 0
EndSplineSet
Validated: 1
EndChar

StartChar: summation
Encoding: 301 8721 213
Width: 1011
Flags: W
LayerCount: 3
Fore
SplineSet
965 690 m 1
 705 -2 l 1
 662 -2 l 1
 504 423 l 1
 347 -2 l 1
 304 -2 l 1
 47 686 l 1
 96 697 l 1
 328 64 l 1
 480 485 l 1
 405 686 l 1
 457 697 l 1
 686 64 l 1
 914 690 l 1
 965 690 l 1
EndSplineSet
Validated: 1
EndChar

StartChar: product
Encoding: 302 8719 214
Width: 500
Flags: W
LayerCount: 3
Fore
SplineSet
25 -200 m 1
 25 800 l 1
 475 800 l 1
 475 -200 l 1
 25 -200 l 1
EndSplineSet
Validated: 1
EndChar

StartChar: pi
Encoding: 303 960 215
Width: 811
Flags: W
LayerCount: 3
Fore
SplineSet
749 345 m 0
 749 137 615 -13 406 -13 c 0
 198 -13 61 137 61 345 c 0
 61 553 196 703 404 703 c 0
 613 703 749 553 749 345 c 0
722 345 m 0
 722 540 598 679 404 679 c 0
 209 679 89 540 89 345 c 0
 89 150 212 11 407 11 c 0
 602 11 722 150 722 345 c 0
541 428 m 0
 541 350 479 309 403 309 c 2
 350 309 l 1
 350 150 l 1
 309 150 l 1
 309 543 l 1
 410 543 l 2
 486 543 541 500 541 428 c 0
499 426 m 0
 499 478 463 505 408 505 c 2
 350 505 l 1
 350 346 l 1
 404 346 l 2
 462 346 499 373 499 426 c 0
EndSplineSet
Validated: 1
EndChar

StartChar: integral
Encoding: 304 8747 216
Width: 526
Flags: W
LayerCount: 3
Fore
SplineSet
443 6 m 2
 443 -115 374 -178 254 -178 c 0
 193 -178 136 -164 82 -143 c 1
 91 -98 l 1
 145 -124 200 -136 259 -136 c 0
 353 -136 396 -86 396 4 c 2
 396 77 l 1
 362 38 317 -1 247 -1 c 0
 143 -1 54 73 54 227 c 0
 54 393 156 477 281 477 c 0
 343 477 398 462 443 445 c 1
 443 6 l 2
396 128 m 1
 396 414 l 1
 366 425 327 436 275 436 c 0
 180 436 103 371 103 229 c 0
 103 107 164 42 248 42 c 0
 305 42 350 76 396 128 c 1
EndSplineSet
Validated: 1
EndChar

StartChar: Omega
Encoding: 305 937 217
Width: 576
Flags: W
LayerCount: 3
Fore
SplineSet
557 670 m 1
 548 672 540 673 522 673 c 0
 473 673 445 649 445 591 c 2
 445 470 l 1
 544 470 l 1
 550 430 l 1
 445 430 l 1
 445 0 l 1
 398 0 l 1
 398 430 l 1
 325 430 l 1
 325 470 l 1
 398 470 l 1
 398 593 l 2
 398 674 441 716 520 716 c 0
 534 716 542 716 550 715 c 1
 557 670 l 1
269 670 m 1
 260 672 252 673 233 673 c 0
 185 673 156 649 156 591 c 2
 156 470 l 1
 255 470 l 1
 262 430 l 1
 156 430 l 1
 156 0 l 1
 110 0 l 1
 110 430 l 1
 37 430 l 1
 37 470 l 1
 110 470 l 1
 110 593 l 2
 110 674 153 716 231 716 c 0
 246 716 253 716 262 715 c 1
 269 670 l 1
EndSplineSet
Validated: 1
EndChar

StartChar: logicalnot
Encoding: 172 172 218
Width: 568
Flags: W
LayerCount: 3
Fore
SplineSet
508 317 m 1
 60 317 l 1
 60 359 l 1
 508 359 l 1
 508 317 l 1
EndSplineSet
Validated: 1
EndChar

StartChar: radical
Encoding: 306 8730 219
Width: 802
Flags: W
LayerCount: 3
Fore
SplineSet
713 0 m 1
 666 0 l 1
 666 705 l 1
 713 715 l 1
 713 0 l 1
557 670 m 1
 548 672 540 673 522 673 c 0
 473 673 445 649 445 591 c 2
 445 470 l 1
 544 470 l 1
 550 430 l 1
 445 430 l 1
 445 0 l 1
 398 0 l 1
 398 430 l 1
 325 430 l 1
 325 470 l 1
 398 470 l 1
 398 593 l 2
 398 674 441 716 520 716 c 0
 534 716 542 716 550 715 c 1
 557 670 l 1
269 670 m 1
 260 672 252 673 233 673 c 0
 185 673 156 649 156 591 c 2
 156 470 l 1
 255 470 l 1
 262 430 l 1
 156 430 l 1
 156 0 l 1
 110 0 l 1
 110 430 l 1
 37 430 l 1
 37 470 l 1
 110 470 l 1
 110 593 l 2
 110 674 153 716 231 716 c 0
 246 716 253 716 262 715 c 1
 269 670 l 1
EndSplineSet
Validated: 1
EndChar

StartChar: approxequal
Encoding: 307 8776 220
Width: 802
Flags: W
LayerCount: 3
Fore
SplineSet
729 638 m 0
 729 617 712 597 689 597 c 0
 668 597 649 617 649 638 c 0
 649 660 668 678 689 678 c 0
 712 678 729 660 729 638 c 0
557 670 m 1
 548 672 540 673 522 673 c 0
 473 673 445 649 445 591 c 2
 445 470 l 1
 544 470 l 1
 550 430 l 1
 445 430 l 1
 445 0 l 1
 398 0 l 1
 398 430 l 1
 325 430 l 1
 325 470 l 1
 398 470 l 1
 398 593 l 2
 398 674 441 716 520 716 c 0
 534 716 542 716 550 715 c 1
 557 670 l 1
269 670 m 1
 260 672 252 673 233 673 c 0
 185 673 156 649 156 591 c 2
 156 470 l 1
 255 470 l 1
 262 430 l 1
 156 430 l 1
 156 0 l 1
 110 0 l 1
 110 430 l 1
 37 430 l 1
 37 470 l 1
 110 470 l 1
 110 593 l 2
 110 674 153 716 231 716 c 0
 246 716 253 716 262 715 c 1
 269 670 l 1
713 0 m 1
 666 0 l 1
 666 470 l 1
 713 470 l 1
 713 0 l 1
EndSplineSet
Validated: 1
EndChar

StartChar: Delta
Encoding: 308 916 221
Width: 500
Flags: W
LayerCount: 3
Fore
SplineSet
25 -200 m 1
 25 800 l 1
 475 800 l 1
 475 -200 l 1
 25 -200 l 1
EndSplineSet
Validated: 1
EndChar

StartChar: Agrave
Encoding: 192 192 223
Width: 694
Flags: W
LayerCount: 3
Fore
SplineSet
647 4 m 1
 599 -7 l 1
 504 236 l 1
 188 236 l 1
 97 0 l 1
 47 0 l 1
 321 694 l 1
 373 694 l 1
 647 4 l 1
488 279 m 1
 346 640 l 1
 206 279 l 1
 488 279 l 1
366 744 m 1
 331 744 l 1
 193 884 l 1
 262 899 l 1
 366 744 l 1
EndSplineSet
Validated: 1
EndChar

StartChar: Atilde
Encoding: 195 195 224
Width: 694
Flags: W
LayerCount: 3
Fore
SplineSet
647 4 m 1
 599 -7 l 1
 504 236 l 1
 188 236 l 1
 97 0 l 1
 47 0 l 1
 321 694 l 1
 373 694 l 1
 647 4 l 1
488 279 m 1
 346 640 l 1
 206 279 l 1
 488 279 l 1
491 847 m 1
 481 787 453 752 419 752 c 0
 391 752 377 760 341 779 c 0
 309 796 296 806 279 806 c 0
 263 806 249 788 240 751 c 1
 206 758 l 1
 217 819 244 854 278 854 c 0
 307 854 320 845 356 826 c 0
 388 809 402 800 418 800 c 0
 435 800 448 818 458 854 c 1
 491 847 l 1
EndSplineSet
Validated: 1
EndChar

StartChar: Otilde
Encoding: 213 213 225
Width: 744
Flags: W
LayerCount: 3
Fore
SplineSet
679 346 m 0
 679 136 548 -13 371 -13 c 0
 194 -13 65 135 65 344 c 0
 65 554 196 703 373 703 c 0
 550 703 679 555 679 346 c 0
629 344 m 0
 629 530 524 660 371 660 c 0
 219 660 115 530 115 346 c 0
 115 160 220 30 373 30 c 0
 525 30 629 160 629 344 c 0
512 861 m 1
 502 801 474 766 440 766 c 0
 412 766 398 774 362 793 c 0
 330 810 317 820 300 820 c 0
 284 820 270 802 261 765 c 1
 227 772 l 1
 238 833 265 868 299 868 c 0
 328 868 341 859 377 840 c 0
 409 823 423 814 439 814 c 0
 456 814 469 832 479 868 c 1
 512 861 l 1
EndSplineSet
Validated: 1
EndChar

StartChar: divide
Encoding: 247 247 226
Width: 568
Flags: W
LayerCount: 3
Fore
SplineSet
314 486 m 1
 255 486 l 1
 255 562 l 1
 314 562 l 1
 314 486 l 1
508 319 m 1
 60 319 l 1
 60 357 l 1
 508 357 l 1
 508 319 l 1
314 114 m 1
 255 114 l 1
 255 190 l 1
 314 190 l 1
 314 114 l 1
EndSplineSet
Validated: 1
EndChar

StartChar: lozenge
Encoding: 309 9674 227
Width: 802
Flags: W
LayerCount: 3
Fore
SplineSet
726 345 m 1
 689 345 l 1
 668 631 l 1
 554 344 l 1
 523 344 l 1
 411 630 l 1
 389 345 l 1
 354 345 l 1
 380 690 l 1
 424 690 l 1
 540 386 l 1
 656 690 l 1
 699 690 l 1
 726 345 l 1
164 340 m 0
 125 340 95 351 71 363 c 1
 75 399 l 1
 102 383 128 372 166 372 c 0
 205 372 240 394 240 434 c 0
 240 468 219 487 172 507 c 0
 103 537 76 558 76 608 c 0
 76 658 121 695 175 695 c 0
 207 695 236 687 258 675 c 1
 252 641 l 1
 227 655 202 663 174 663 c 0
 136 663 110 641 110 610 c 0
 110 578 131 563 184 540 c 0
 245 514 275 488 275 436 c 0
 275 375 223 340 164 340 c 0
EndSplineSet
Validated: 1
EndChar

StartChar: ydieresis
Encoding: 255 255 228
Width: 477
Flags: W
LayerCount: 3
Fore
SplineSet
442 470 m 1
 236 -72 l 2
 207 -150 173 -178 110 -178 c 0
 102 -178 94 -177 88 -176 c 1
 81 -135 l 1
 88 -135 97 -136 111 -136 c 0
 152 -136 174 -119 194 -67 c 2
 219 -3 l 1
 36 465 l 1
 82 475 l 1
 242 53 l 1
 393 470 l 1
 442 470 l 1
357 561 m 1
 287 561 l 1
 287 640 l 1
 357 640 l 1
 357 561 l 1
190 561 m 1
 121 561 l 1
 121 640 l 1
 190 640 l 1
 190 561 l 1
EndSplineSet
Validated: 1
EndChar

StartChar: Ydieresis
Encoding: 310 376 229
Width: 621
Flags: W
LayerCount: 3
Fore
SplineSet
580 690 m 1
 334 297 l 1
 334 0 l 1
 286 0 l 1
 286 296 l 1
 41 687 l 1
 89 697 l 1
 311 336 l 1
 528 690 l 1
 580 690 l 1
430 744 m 1
 360 744 l 1
 360 823 l 1
 430 823 l 1
 430 744 l 1
263 744 m 1
 194 744 l 1
 194 823 l 1
 263 823 l 1
 263 744 l 1
EndSplineSet
Validated: 1
EndChar

StartChar: Acircumflex
Encoding: 194 194 230
Width: 694
Flags: W
LayerCount: 3
Fore
SplineSet
647 4 m 1
 599 -7 l 1
 504 236 l 1
 188 236 l 1
 97 0 l 1
 47 0 l 1
 321 694 l 1
 373 694 l 1
 647 4 l 1
488 279 m 1
 346 640 l 1
 206 279 l 1
 488 279 l 1
473 738 m 1
 447 733 l 1
 347 828 l 1
 250 735 l 1
 218 735 l 1
 327 884 l 1
 370 884 l 1
 473 738 l 1
EndSplineSet
Validated: 1
EndChar

StartChar: Ecircumflex
Encoding: 202 202 231
Width: 505
Flags: W
LayerCount: 3
Fore
SplineSet
459 0 m 1
 100 0 l 1
 100 690 l 1
 449 690 l 1
 449 647 l 1
 148 647 l 1
 148 383 l 1
 390 383 l 1
 396 340 l 1
 148 340 l 1
 148 43 l 1
 459 43 l 1
 459 0 l 1
396 748 m 1
 370 743 l 1
 270 838 l 1
 173 745 l 1
 141 745 l 1
 250 894 l 1
 293 894 l 1
 396 748 l 1
EndSplineSet
Validated: 1
EndChar

StartChar: Aacute
Encoding: 193 193 232
Width: 694
Flags: W
LayerCount: 3
Fore
SplineSet
502 884 m 1
 364 744 l 1
 328 744 l 1
 434 899 l 1
 502 884 l 1
647 4 m 1
 599 -7 l 1
 504 236 l 1
 188 236 l 1
 97 0 l 1
 47 0 l 1
 321 694 l 1
 373 694 l 1
 647 4 l 1
488 279 m 1
 346 640 l 1
 206 279 l 1
 488 279 l 1
EndSplineSet
Validated: 1
EndChar

StartChar: Edieresis
Encoding: 203 203 233
Width: 505
Flags: W
LayerCount: 3
Fore
SplineSet
459 0 m 1
 100 0 l 1
 100 690 l 1
 449 690 l 1
 449 647 l 1
 148 647 l 1
 148 383 l 1
 390 383 l 1
 396 340 l 1
 148 340 l 1
 148 43 l 1
 459 43 l 1
 459 0 l 1
389 754 m 1
 319 754 l 1
 319 833 l 1
 389 833 l 1
 389 754 l 1
222 754 m 1
 153 754 l 1
 153 833 l 1
 222 833 l 1
 222 754 l 1
EndSplineSet
Validated: 1
EndChar

StartChar: Egrave
Encoding: 200 200 234
Width: 505
Flags: W
LayerCount: 3
Fore
SplineSet
459 0 m 1
 100 0 l 1
 100 690 l 1
 449 690 l 1
 449 647 l 1
 148 647 l 1
 148 383 l 1
 390 383 l 1
 396 340 l 1
 148 340 l 1
 148 43 l 1
 459 43 l 1
 459 0 l 1
308 745 m 1
 273 745 l 1
 135 885 l 1
 204 900 l 1
 308 745 l 1
EndSplineSet
Validated: 1
EndChar

StartChar: Iacute
Encoding: 205 205 235
Width: 264
Flags: W
LayerCount: 3
Fore
SplineSet
287 884 m 1
 149 744 l 1
 113 744 l 1
 219 899 l 1
 287 884 l 1
156 0 m 1
 108 0 l 1
 108 690 l 1
 156 690 l 1
 156 0 l 1
EndSplineSet
Validated: 1
EndChar

StartChar: Icircumflex
Encoding: 206 206 236
Width: 264
Flags: W
LayerCount: 3
Fore
SplineSet
156 0 m 1
 108 0 l 1
 108 690 l 1
 156 690 l 1
 156 0 l 1
258 738 m 1
 232 733 l 1
 132 828 l 1
 35 735 l 1
 3 735 l 1
 112 884 l 1
 155 884 l 1
 258 738 l 1
EndSplineSet
Validated: 1
EndChar

StartChar: Idieresis
Encoding: 207 207 237
Width: 264
Flags: W
LayerCount: 3
Fore
SplineSet
156 0 m 1
 108 0 l 1
 108 690 l 1
 156 690 l 1
 156 0 l 1
251 753 m 1
 181 753 l 1
 181 832 l 1
 251 832 l 1
 251 753 l 1
84 753 m 1
 15 753 l 1
 15 832 l 1
 84 832 l 1
 84 753 l 1
EndSplineSet
Validated: 1
EndChar

StartChar: Igrave
Encoding: 204 204 238
Width: 264
Flags: W
LayerCount: 3
Fore
SplineSet
156 0 m 1
 108 0 l 1
 108 690 l 1
 156 690 l 1
 156 0 l 1
151 744 m 1
 116 744 l 1
 -22 884 l 1
 47 899 l 1
 151 744 l 1
EndSplineSet
Validated: 1
EndChar

StartChar: Oacute
Encoding: 211 211 239
Width: 744
Flags: W
LayerCount: 3
Fore
SplineSet
520 893 m 1
 382 753 l 1
 346 753 l 1
 452 908 l 1
 520 893 l 1
679 346 m 0
 679 136 548 -13 371 -13 c 0
 194 -13 65 135 65 344 c 0
 65 554 196 703 373 703 c 0
 550 703 679 555 679 346 c 0
629 344 m 0
 629 530 524 660 371 660 c 0
 219 660 115 530 115 346 c 0
 115 160 220 30 373 30 c 0
 525 30 629 160 629 344 c 0
EndSplineSet
Validated: 1
EndChar

StartChar: Ocircumflex
Encoding: 212 212 240
Width: 744
Flags: W
LayerCount: 3
Fore
SplineSet
679 346 m 0
 679 136 548 -13 371 -13 c 0
 194 -13 65 135 65 344 c 0
 65 554 196 703 373 703 c 0
 550 703 679 555 679 346 c 0
629 344 m 0
 629 530 524 660 371 660 c 0
 219 660 115 530 115 346 c 0
 115 160 220 30 373 30 c 0
 525 30 629 160 629 344 c 0
495 752 m 1
 469 747 l 1
 369 842 l 1
 272 749 l 1
 240 749 l 1
 349 898 l 1
 392 898 l 1
 495 752 l 1
EndSplineSet
Validated: 1
EndChar

StartChar: apple
Encoding: 311 63743 241
Width: 694
Flags: W
LayerCount: 3
Fore
SplineSet
644 -200 m 1
 436 -200 l 1
 428 -186 l 1
 265 -186 l 1
 257 -200 l 1
 50 -200 l 1
 50 103 l 1
 68 103 82 117 82 135 c 0
 82 152 68 167 50 167 c 1
 50 721 l 1
 150 721 l 1
 180 800 l 1
 514 800 l 1
 543 721 l 1
 644 721 l 1
 644 -200 l 1
400 563 m 1
 400 391 l 1
 415 391 l 1
 415 469 l 1
 453 469 l 1
 453 483 l 1
 415 483 l 1
 415 549 l 1
 458 549 l 1
 458 563 l 1
 400 563 l 1
184 563 m 1
 184 391 l 1
 199 391 l 1
 199 470 l 1
 246 470 l 1
 246 391 l 1
 261 391 l 1
 261 563 l 1
 246 563 l 1
 246 484 l 1
 199 484 l 1
 199 563 l 1
 184 563 l 1
460 394 m 1
 464 392 475 390 481 390 c 0
 501 390 512 401 512 426 c 2
 512 563 l 1
 496 563 l 1
 496 426 l 2
 496 410 491 404 480 404 c 0
 475 404 465 407 460 410 c 1
 460 394 l 1
523 323 m 1
 523 277 l 1
 531 277 l 1
 531 290 l 1
 538 297 l 1
 554 277 l 1
 563 277 l 1
 544 303 l 1
 562 323 l 1
 552 323 l 1
 531 299 l 1
 531 323 l 1
 523 323 l 1
488 292 m 1
 498 277 l 1
 507 277 l 1
 495 294 l 1
 501 296 505 302 505 309 c 0
 505 315 499 323 489 323 c 2
 468 323 l 1
 468 277 l 1
 476 277 l 1
 476 292 l 1
 488 292 l 1
426 276 m 0
 441 276 450 287 450 300 c 0
 450 312 440 324 426 324 c 0
 412 324 403 312 403 300 c 0
 403 287 412 276 426 276 c 0
370 301 m 1
 357 323 l 1
 348 323 l 1
 366 294 l 1
 366 277 l 1
 374 277 l 1
 374 294 l 1
 392 323 l 1
 383 323 l 1
 370 301 l 1
193 323 m 1
 193 277 l 1
 226 277 l 1
 226 284 l 1
 201 284 l 1
 201 297 l 1
 223 297 l 1
 223 304 l 1
 201 304 l 1
 201 316 l 1
 226 316 l 1
 226 323 l 1
 193 323 l 1
132 323 m 1
 132 277 l 1
 140 277 l 1
 140 309 l 1
 165 277 l 1
 172 277 l 1
 172 323 l 1
 164 323 l 1
 164 291 l 1
 139 323 l 1
 132 323 l 1
241 323 m 1
 256 276 l 1
 264 276 l 1
 274 310 l 1
 275 310 l 1
 286 276 l 1
 294 276 l 1
 308 323 l 1
 300 323 l 1
 290 288 l 1
 289 288 l 1
 279 323 l 1
 271 323 l 1
 260 288 l 1
 259 288 l 1
 249 323 l 1
 241 323 l 1
327 479 m 1
 320 492 315 501 315 511 c 0
 315 521 321 530 329 530 c 0
 337 530 342 521 342 511 c 0
 342 499 337 490 327 479 c 1
342 423 m 1
 339 413 331 402 324 402 c 0
 314 402 307 414 307 429 c 0
 307 440 313 453 322 462 c 1
 342 423 l 1
488 299 m 2
 476 299 l 1
 476 316 l 1
 487 316 l 2
 493 316 497 313 497 308 c 0
 497 303 493 299 488 299 c 2
426 283 m 0
 417 283 411 291 411 300 c 0
 411 308 417 317 426 317 c 0
 435 317 442 308 442 300 c 0
 442 291 435 283 426 283 c 0
349 438 m 1
 333 469 l 1
 346 481 356 495 356 511 c 0
 356 526 347 542 329 542 c 0
 312 542 301 526 301 511 c 0
 301 496 307 487 315 472 c 1
 300 460 292 444 292 427 c 0
 292 405 305 388 323 388 c 0
 336 388 345 400 350 412 c 1
 351 412 l 1
 363 388 l 1
 374 396 l 1
 358 426 l 1
 363 438 368 451 371 465 c 1
 358 468 l 1
 356 459 352 447 349 438 c 1
EndSplineSet
Validated: 1
EndChar

StartChar: Ograve
Encoding: 210 210 242
Width: 744
Flags: W
LayerCount: 3
Fore
SplineSet
679 346 m 0
 679 136 548 -13 371 -13 c 0
 194 -13 65 135 65 344 c 0
 65 554 196 703 373 703 c 0
 550 703 679 555 679 346 c 0
629 344 m 0
 629 530 524 660 371 660 c 0
 219 660 115 530 115 346 c 0
 115 160 220 30 373 30 c 0
 525 30 629 160 629 344 c 0
398 753 m 1
 363 753 l 1
 225 893 l 1
 294 908 l 1
 398 753 l 1
EndSplineSet
Validated: 1
EndChar

StartChar: Uacute
Encoding: 218 218 243
Width: 674
Flags: W
LayerCount: 3
Fore
SplineSet
476 871 m 1
 338 731 l 1
 302 731 l 1
 408 886 l 1
 476 871 l 1
589 260 m 2
 589 99 494 -10 335 -10 c 0
 177 -10 85 101 85 255 c 2
 85 690 l 1
 133 690 l 1
 133 262 l 2
 133 127 204 33 337 33 c 0
 468 33 541 122 541 257 c 2
 541 690 l 1
 589 690 l 1
 589 260 l 2
EndSplineSet
Validated: 1
EndChar

StartChar: Ucircumflex
Encoding: 219 219 244
Width: 674
Flags: W
LayerCount: 3
Fore
SplineSet
589 260 m 2
 589 99 494 -10 335 -10 c 0
 177 -10 85 101 85 255 c 2
 85 690 l 1
 133 690 l 1
 133 262 l 2
 133 127 204 33 337 33 c 0
 468 33 541 122 541 257 c 2
 541 690 l 1
 589 690 l 1
 589 260 l 2
462 738 m 1
 436 733 l 1
 336 828 l 1
 239 735 l 1
 207 735 l 1
 316 884 l 1
 359 884 l 1
 462 738 l 1
EndSplineSet
Validated: 1
EndChar

StartChar: Ugrave
Encoding: 217 217 245
Width: 674
Flags: W
LayerCount: 3
Fore
SplineSet
589 260 m 2
 589 99 494 -10 335 -10 c 0
 177 -10 85 101 85 255 c 2
 85 690 l 1
 133 690 l 1
 133 262 l 2
 133 127 204 33 337 33 c 0
 468 33 541 122 541 257 c 2
 541 690 l 1
 589 690 l 1
 589 260 l 2
371 731 m 1
 336 731 l 1
 198 871 l 1
 267 886 l 1
 371 731 l 1
EndSplineSet
Validated: 1
EndChar
